<?xml version="1.0" encoding="UTF-8"?>
<!DOCTYPE svg PUBLIC "-//W3C//DTD SVG 1.1//EN" "http://www.w3.org/Graphics/SVG/1.1/DTD/svg11.dtd">
<svg xmlns="http://www.w3.org/2000/svg" version="1.1" width="1920px" height="1080px" style="shape-rendering:geometricPrecision; text-rendering:geometricPrecision; image-rendering:optimizeQuality; fill-rule:evenodd; clip-rule:evenodd" xmlns:xlink="http://www.w3.org/1999/xlink">
<g><path style="opacity:1" fill="#342e37" d="M -0.5,-0.5 C 639.5,-0.5 1279.5,-0.5 1919.5,-0.5C 1919.5,359.5 1919.5,719.5 1919.5,1079.5C 1279.5,1079.5 639.5,1079.5 -0.5,1079.5C -0.5,719.5 -0.5,359.5 -0.5,-0.5 Z"/></g>
<g><path style="opacity:1" fill="#22a96e" d="M 1141.5,177.5 C 1142.44,179.05 1143.11,180.716 1143.5,182.5C 1143.72,186.162 1144.72,189.495 1146.5,192.5C 1149.53,207.341 1151.2,222.341 1151.5,237.5C 1151.7,262.844 1151.36,288.177 1150.5,313.5C 1147.26,353.355 1140.93,392.688 1131.5,431.5C 1130.08,433.515 1129.41,435.848 1129.5,438.5C 1119.08,477.325 1102.25,512.991 1079,545.5C 1064.1,564.701 1044.93,577.534 1021.5,584C 1002.31,588.643 982.981,592.643 963.5,596C 960.071,596.982 956.738,598.148 953.5,599.5C 948.204,600.315 943.537,602.481 939.5,606C 940,606.167 940.5,606.333 941,606.5C 946.45,604.01 951.95,602.01 957.5,600.5C 966.377,598.47 975.377,597.47 984.5,597.5C 993.068,597.898 1001.4,597.231 1009.5,595.5C 1038.98,594.175 1063.48,582.508 1083,560.5C 1083.01,562.471 1082.68,564.471 1082,566.5C 1072.58,583.687 1061.91,600.021 1050,615.5C 1034.95,630.617 1017.45,642.117 997.5,650C 982.97,655.732 968.304,661.065 953.5,666C 924.357,680.921 899.357,701.088 878.5,726.5C 924.169,712.674 967.836,693.841 1009.5,670C 1016.28,665.552 1022.78,660.719 1029,655.5C 1028.18,658.801 1026.51,661.801 1024,664.5C 1009.38,680.795 993.209,695.295 975.5,708C 948.416,726.549 919.749,742.549 889.5,756C 878.889,760.87 867.889,764.537 856.5,767C 843.575,781.69 831.742,797.19 821,813.5C 819.181,819.774 817.515,826.107 816,832.5C 808.668,851.155 801.335,869.822 794,888.5C 792.039,891.135 789.539,892.969 786.5,894C 783.324,898.006 779.991,901.84 776.5,905.5C 774.806,903.446 773.639,901.112 773,898.5C 771.119,888.56 770.119,878.56 770,868.5C 776.117,850.485 782.451,832.485 789,814.5C 790.333,812.5 791.667,810.5 793,808.5C 794.661,795.373 796.827,782.373 799.5,769.5C 799.333,766.833 799.167,764.167 799,761.5C 789.899,743.538 781.566,725.204 774,706.5C 772.335,699.511 770.835,692.511 769.5,685.5C 768.662,673.52 768.328,661.52 768.5,649.5C 769.367,643.701 770.7,638.034 772.5,632.5C 773.924,630.485 774.59,628.152 774.5,625.5C 776.758,618.064 779.758,611.064 783.5,604.5C 783.704,609.276 783.704,614.276 783.5,619.5C 781.853,635.46 781.353,651.46 782,667.5C 785.503,683.152 790.67,698.152 797.5,712.5C 797.783,713.289 798.283,713.956 799,714.5C 799.81,710.642 799.643,706.976 798.5,703.5C 798.096,675.125 798.763,646.792 800.5,618.5C 801.972,614.081 802.638,609.414 802.5,604.5C 802.735,599.759 803.402,595.092 804.5,590.5C 806.246,584.074 807.246,577.407 807.5,570.5C 808.011,564.951 809.011,559.617 810.5,554.5C 812.136,550.79 812.802,546.79 812.5,542.5C 814.406,531.97 817.073,521.637 820.5,511.5C 821.117,511.389 821.617,511.056 822,510.5C 822.169,524.673 822.669,538.673 823.5,552.5C 825.068,593.478 825.901,634.478 826,675.5C 838.471,654.196 846.138,631.196 849,606.5C 849.499,601.177 849.666,595.844 849.5,590.5C 849.375,583.902 848.375,577.569 846.5,571.5C 845.908,568.873 845.575,566.206 845.5,563.5C 845.502,558.5 844.502,553.833 842.5,549.5C 841.661,541.46 840.494,533.46 839,525.5C 837.162,510.736 838.829,496.403 844,482.5C 857.681,449.955 877.181,421.455 902.5,397C 915.981,385.096 929.647,373.43 943.5,362C 944.332,361.312 944.998,361.479 945.5,362.5C 943.161,366.184 941.828,370.184 941.5,374.5C 940.313,377.946 939.646,381.613 939.5,385.5C 934.07,425.678 939.404,464.344 955.5,501.5C 956.072,502.973 956.905,504.307 958,505.5C 958.405,503.225 957.905,501.225 956.5,499.5C 945.488,462.763 943.821,425.763 951.5,388.5C 952.924,386.485 953.59,384.152 953.5,381.5C 956.858,366.617 963.525,353.451 973.5,342C 1010.29,320.938 1047.63,300.938 1085.5,282C 1101,270.5 1114.5,257 1126,241.5C 1133.02,226.599 1137.52,210.933 1139.5,194.5C 1140.17,188.833 1140.83,183.167 1141.5,177.5 Z"/></g>
<g><path style="opacity:1" fill="#28815c" d="M 1141.5,177.5 C 1140.83,183.167 1140.17,188.833 1139.5,194.5C 1139.17,188.132 1139.5,181.798 1140.5,175.5C 1141.3,175.957 1141.63,176.624 1141.5,177.5 Z"/></g>
<g><path style="opacity:1" fill="#2b7959" d="M 1143.5,182.5 C 1145.28,185.505 1146.28,188.838 1146.5,192.5C 1144.72,189.495 1143.72,186.162 1143.5,182.5 Z"/></g>
<g><path style="opacity:1" fill="#2c6851" d="M 1151.5,237.5 C 1152.66,259.329 1152.83,281.329 1152,303.5C 1151.82,307.025 1151.32,310.359 1150.5,313.5C 1151.36,288.177 1151.7,262.844 1151.5,237.5 Z"/></g>
<g><path style="opacity:1" fill="#31584a" d="M 941.5,374.5 C 941.884,378.489 941.217,382.155 939.5,385.5C 939.646,381.613 940.313,377.946 941.5,374.5 Z"/></g>
<g><path style="opacity:1" fill="#2b7858" d="M 953.5,381.5 C 953.59,384.152 952.924,386.485 951.5,388.5C 951.41,385.848 952.076,383.515 953.5,381.5 Z"/></g>
<g><path style="opacity:1" fill="#342f37" d="M 1071.5,388.5 C 986.102,492.638 913.602,605.971 854,728.5C 840.895,756.319 829.062,784.652 818.5,813.5C 811.312,813.239 804.645,811.239 798.5,807.5C 848.953,668.66 923.453,544.66 1022,435.5C 1038.05,419.249 1054.55,403.582 1071.5,388.5 Z"/></g>
<g><path style="opacity:1" fill="#2f5a4b" d="M 1131.5,431.5 C 1131.59,434.152 1130.92,436.485 1129.5,438.5C 1129.41,435.848 1130.08,433.515 1131.5,431.5 Z"/></g>
<g><path style="opacity:1" fill="#2f5548" d="M 956.5,499.5 C 957.905,501.225 958.405,503.225 958,505.5C 956.905,504.307 956.072,502.973 955.5,501.5C 956.338,501.158 956.672,500.492 956.5,499.5 Z"/></g>
<g><path style="opacity:1" fill="#2d5c4c" d="M 823.5,552.5 C 822.669,538.673 822.169,524.673 822,510.5C 821.617,511.056 821.117,511.389 820.5,511.5C 821.045,509.407 821.878,507.407 823,505.5C 823.5,521.163 823.667,536.83 823.5,552.5 Z"/></g>
<g><path style="opacity:1" fill="#2b855e" d="M 812.5,542.5 C 812.802,546.79 812.136,550.79 810.5,554.5C 810.198,550.21 810.864,546.21 812.5,542.5 Z"/></g>
<g><path style="opacity:1" fill="#2b7959" d="M 842.5,549.5 C 844.502,553.833 845.502,558.5 845.5,563.5C 844.01,559.058 843.01,554.391 842.5,549.5 Z"/></g>
<g><path style="opacity:1" fill="#324b44" d="M 846.5,571.5 C 848.375,577.569 849.375,583.902 849.5,590.5C 847.547,584.444 846.547,578.111 846.5,571.5 Z"/></g>
<g><path style="opacity:1" fill="#2b7b5a" d="M 807.5,570.5 C 807.246,577.407 806.246,584.074 804.5,590.5C 804.585,583.565 805.585,576.899 807.5,570.5 Z"/></g>
<g><path style="opacity:1" fill="#2b7959" d="M 1009.5,595.5 C 1001.4,597.231 993.068,597.898 984.5,597.5C 992.65,596.399 1000.98,595.732 1009.5,595.5 Z"/></g>
<g><path style="opacity:1" fill="#33413f" d="M 953.5,599.5 C 954.568,600.434 955.901,600.768 957.5,600.5C 951.95,602.01 946.45,604.01 941,606.5C 940.5,606.333 940,606.167 939.5,606C 943.537,602.481 948.204,600.315 953.5,599.5 Z"/></g>
<g><path style="opacity:1" fill="#2d6550" d="M 783.5,619.5 C 783.704,614.276 783.704,609.276 783.5,604.5C 784.851,600.339 785.518,600.506 785.5,605C 785.036,610.008 784.37,614.841 783.5,619.5 Z"/></g>
<g><path style="opacity:1" fill="#2c7456" d="M 802.5,604.5 C 802.638,609.414 801.972,614.081 800.5,618.5C 800.362,613.586 801.028,608.919 802.5,604.5 Z"/></g>
<g><path style="opacity:1" fill="#2c7356" d="M 774.5,625.5 C 774.59,628.152 773.924,630.485 772.5,632.5C 772.41,629.848 773.076,627.515 774.5,625.5 Z"/></g>
<g><path style="opacity:1" fill="#29805c" d="M 768.5,649.5 C 768.328,661.52 768.662,673.52 769.5,685.5C 767.965,678.736 767.298,671.736 767.5,664.5C 767.501,659.322 767.834,654.322 768.5,649.5 Z"/></g>
<g><path style="opacity:1" fill="#2e5e4c" d="M 798.5,703.5 C 799.643,706.976 799.81,710.642 799,714.5C 798.283,713.956 797.783,713.289 797.5,712.5C 798.477,709.713 798.81,706.713 798.5,703.5 Z"/></g>
</svg>
