<?xml version="1.0" encoding="UTF-8"?>
<svg version="1.1" xmlns="http://www.w3.org/2000/svg" width="1920" height="1080">
<path d="M0 0 C633.6 0 1267.2 0 1920 0 C1920 356.4 1920 712.8 1920 1080 C1286.4 1080 652.8 1080 0 1080 C0 723.6 0 367.2 0 0 Z " fill="#1789FB" transform="translate(0,0)"/>
<path d="M0 0 C0.56332031 0.39316406 1.12664062 0.78632813 1.70703125 1.19140625 C3.31578125 2.30515625 3.31578125 2.30515625 4.95703125 3.44140625 C10.27945687 8.76383187 12.83387769 15.25936517 13.01953125 22.75390625 C12.98167404 29.00791764 11.3566957 33.6116384 8.70703125 39.19140625 C8.03072574 40.85418497 7.36148155 42.51990482 6.70703125 44.19140625 C9.56617593 46.48136935 12.37774087 48.05401519 15.70703125 49.56640625 C19.76246456 51.54641192 22.24910412 53.2996883 24.70703125 57.19140625 C25.36703125 58.18140625 26.02703125 59.17140625 26.70703125 60.19140625 C27.74350066 66.63198266 26.14712152 71.60590914 23.20703125 77.25390625 C22.84319336 77.98867188 22.47935547 78.7234375 22.10449219 79.48046875 C20.98839804 81.72613876 19.84954524 83.95908652 18.70703125 86.19140625 C18.07518337 87.44969888 17.44489259 88.708775 16.81640625 89.96875 C15.8823776 91.84075042 14.94674556 93.71176697 14.00341797 95.57910156 C10.1249871 103.27580344 6.43849386 111.06570475 2.74316406 118.8515625 C2.00211426 120.40617187 2.00211426 120.40617187 1.24609375 121.9921875 C0.80475098 122.92200439 0.3634082 123.85182129 -0.09130859 124.80981445 C-1.29296875 127.19140625 -1.29296875 127.19140625 -3.29296875 130.19140625 C-4.94296875 129.86140625 -6.59296875 129.53140625 -8.29296875 129.19140625 C-9.66348824 124.71662685 -8.88349318 122.49168394 -6.828125 118.359375 C-6.00453491 116.67847778 -6.00453491 116.67847778 -5.16430664 114.96362305 C-4.56160344 113.76859498 -3.95865264 112.57369176 -3.35546875 111.37890625 C-2.74931715 110.15271798 -2.14442285 108.92590739 -1.54077148 107.69848633 C0.19096749 104.18717415 1.94610027 100.68817181 3.70703125 97.19140625 C4.13886719 96.33289063 4.57070312 95.474375 5.015625 94.58984375 C5.73737851 93.15632639 6.4594354 91.72296172 7.18188477 90.28979492 C9.96585346 84.76351468 12.6933495 79.22162894 15.20703125 73.56640625 C15.9340625 71.93832031 15.9340625 71.93832031 16.67578125 70.27734375 C17.7673195 67.01099824 18.0444767 64.60987535 17.70703125 61.19140625 C13.65617638 56.58181277 7.25021422 54.56012191 1.70703125 52.19140625 C1.37703125 53.34640625 1.04703125 54.50140625 0.70703125 55.69140625 C-0.76586159 60.11222436 -2.72705861 64.19838435 -4.84765625 68.3359375 C-9.12937025 76.79632763 -13.21056757 85.34489616 -17.25732422 93.91967773 C-18.42230168 96.38808708 -19.58984029 98.85527209 -20.7578125 101.32226562 C-24.00108661 108.17872033 -27.2327633 115.03906613 -30.39453125 121.93359375 C-33.36339098 128.39022712 -36.46915167 134.77759214 -39.58493042 141.16403198 C-44.85999443 151.98284498 -50.01214193 162.83949429 -54.9387207 173.82250977 C-57.5432608 179.60765166 -60.30159497 185.28707622 -63.18530273 190.93725586 C-66.22567041 196.9444278 -69.00928181 203.0618824 -71.79296875 209.19140625 C-75.13544804 216.55044002 -78.55913195 223.83716987 -82.234375 231.03515625 C-85.25829764 237.00954593 -88.02409566 243.09544619 -90.79296875 249.19140625 C-100.99235718 271.64379852 -100.99235718 271.64379852 -105.4921875 279.20703125 C-106.64614521 282.06659474 -106.55705005 284.62168294 -106.54296875 287.69140625 C-106.548125 288.81546875 -106.55328125 289.93953125 -106.55859375 291.09765625 C-106.30149749 294.09207148 -105.73494471 295.62537028 -104.29296875 298.19140625 C-104.16796875 300.94140625 -104.16796875 300.94140625 -104.29296875 303.19140625 C-105.94296875 303.85140625 -107.59296875 304.51140625 -109.29296875 305.19140625 C-109.29296875 305.85140625 -109.29296875 306.51140625 -109.29296875 307.19140625 C-110.164375 307.60390625 -111.03578125 308.01640625 -111.93359375 308.44140625 C-120.19344238 312.41897576 -127.79304402 316.88533706 -135.29296875 322.19140625 C-136.23011719 322.84109375 -137.16726563 323.49078125 -138.1328125 324.16015625 C-144.6070003 328.73658072 -150.53459886 333.74458995 -156.29296875 339.19140625 C-156.86015625 339.71089844 -157.42734375 340.23039062 -158.01171875 340.765625 C-159.54421854 342.28033721 -159.54421854 342.28033721 -160.29296875 345.19140625 C-159.34808594 345.40925781 -158.40320313 345.62710937 -157.4296875 345.8515625 C-152.26363066 347.33442414 -147.76886829 350.01016478 -143.10546875 352.62890625 C-142.13641602 353.16386719 -141.16736328 353.69882812 -140.16894531 354.25 C-135.53757165 356.80940362 -130.92345329 359.39803343 -126.3203125 362.0078125 C-100.84225398 376.37905021 -72.15224386 391.73611697 -42.16796875 391.44140625 C-40.65855713 391.43125488 -40.65855713 391.43125488 -39.11865234 391.42089844 C-10.61666502 391.02977495 19.35476993 383.62078442 41.70703125 365.19140625 C42.53267578 364.33482422 42.53267578 364.33482422 43.375 363.4609375 C44.70703125 362.19140625 44.70703125 362.19140625 46.70703125 362.19140625 C51.27588556 370.33217035 49.60491136 383.39796357 47.20703125 392.06640625 C40.3250877 411.02784512 26.10513764 425.31274723 8.20703125 434.06640625 C-3.88219742 438.99612889 -15.67651498 439.76693066 -28.54296875 439.69140625 C-29.37889557 439.68897919 -30.21482239 439.68655212 -31.07608032 439.68405151 C-62.96673906 439.50512314 -92.55984783 429.58579344 -121.29296875 416.19140625 C-122.10217773 415.81435547 -122.91138672 415.43730469 -123.74511719 415.04882812 C-136.18461627 409.17917227 -148.04408465 402.4075559 -159.8671875 395.390625 C-161.24076416 394.58310791 -161.24076416 394.58310791 -162.64208984 393.75927734 C-164.37894867 392.73200645 -166.10635956 391.68855144 -167.82275391 390.62744141 C-168.60312012 390.15999512 -169.38348633 389.69254883 -170.1875 389.2109375 C-170.86272705 388.79561768 -171.5379541 388.38029785 -172.23364258 387.95239258 C-174.98742754 386.9347817 -176.5146194 387.32061293 -179.29296875 388.19140625 C-181.29395887 389.25013741 -181.29395887 389.25013741 -183.15625 390.6328125 C-183.87006836 391.13022949 -184.58388672 391.62764648 -185.31933594 392.14013672 C-186.07375977 392.67268066 -186.82818359 393.20522461 -187.60546875 393.75390625 C-195.84981631 399.40616651 -204.21838881 404.03261805 -213.29296875 408.19140625 C-214.4634375 408.74570312 -215.63390625 409.3 -216.83984375 409.87109375 C-241.15401558 420.92799089 -272.67276901 425.19181099 -298.29296875 416.19140625 C-307.69031683 412.06371032 -314.67221421 405.83699237 -318.56640625 396.3046875 C-322.1013279 386.0230068 -320.44190968 376.07745837 -316.29296875 366.19140625 C-307.99253173 350.8014713 -292.54141839 341.51593949 -276.375 336.0625 C-263.5102268 332.42644877 -250.76308599 330.06288097 -237.375 329.98828125 C-236.55529221 329.98258118 -235.73558441 329.9768811 -234.89103699 329.9710083 C-233.16752382 329.96163042 -231.4439933 329.95505334 -229.72045898 329.95117188 C-227.12906439 329.94149437 -224.53847404 329.9104133 -221.94726562 329.87890625 C-211.93987514 329.81517674 -203.00253987 330.56821318 -193.29296875 333.19140625 C-192.53169678 333.38057617 -191.7704248 333.56974609 -190.98608398 333.76464844 C-189.18608228 334.21515467 -187.39518476 334.7016322 -185.60546875 335.19140625 C-183.75695312 335.69414063 -183.75695312 335.69414063 -181.87109375 336.20703125 C-180.09992188 336.69429687 -180.09992188 336.69429687 -178.29296875 337.19140625 C-176.14715972 337.77482898 -174.00132913 338.3581724 -171.85546875 338.94140625 C-170.33451182 339.35762154 -168.81362536 339.77409508 -167.29296875 340.19140625 C-166.92919955 319.84054033 -167.64776173 299.61210419 -171.70703125 279.6171875 C-172.25827372 276.39425651 -172.40316825 273.45230962 -172.29296875 270.19140625 C-171.26171875 269.75828125 -170.23046875 269.32515625 -169.16796875 268.87890625 C-168.20697266 268.45738281 -168.20697266 268.45738281 -167.2265625 268.02734375 C-165.5773243 267.31433976 -163.90570211 266.65348653 -162.23046875 266.00390625 C-154.24570288 261.07713582 -150.85349727 251.54054757 -147.16796875 243.31640625 C-146.60637496 242.08288323 -146.04377546 240.84981764 -145.48022461 239.6171875 C-144.32015646 237.07665488 -143.16505089 234.53396078 -142.01416016 231.98925781 C-139.32316679 226.04350542 -136.5876904 220.11830561 -133.85546875 214.19140625 C-133.38415527 213.16160645 -132.9128418 212.13180664 -132.42724609 211.07080078 C-129.64865778 205.0231694 -126.74959775 199.05098539 -123.75512695 193.10742188 C-121.4840205 188.5781022 -119.2902241 184.01286912 -117.10546875 179.44140625 C-116.63987549 178.46840576 -116.17428223 177.49540527 -115.69458008 176.49291992 C-112.21672292 169.19612489 -108.83230624 161.85931143 -105.48046875 154.50390625 C-102.4061981 147.7577229 -99.29557845 141.05402126 -95.92578125 134.44921875 C-92.60678482 127.82710626 -89.46146679 121.11945914 -86.2734375 114.43359375 C-84.3265873 110.35113879 -82.37118062 106.27300166 -80.40625 102.19921875 C-75.31901869 91.64801909 -70.28976821 81.07293449 -65.35519409 70.44955444 C-58.63378082 55.97939261 -51.76052333 41.58794279 -44.75466919 27.2532959 C-43.06994899 23.80219738 -41.41295396 20.33972661 -39.78125 16.86328125 C-39.09768484 15.43097594 -38.41409434 13.99868272 -37.73046875 12.56640625 C-36.92416016 10.84550781 -36.92416016 10.84550781 -36.1015625 9.08984375 C-32.84591882 3.87237591 -27.45625928 -0.48559254 -21.53515625 -2.3671875 C-14.23992531 -3.80335666 -6.47879824 -3.91455809 0 0 Z " fill="#F2CB03" transform="translate(1070.29296875,320.80859375)"/>
<path d="M0 0 C5.46737191 1.74807129 10.75824848 3.65794081 16 6 C16 6.66 16 7.32 16 8 C17.01126953 8.15275391 17.01126953 8.15275391 18.04296875 8.30859375 C21.65868143 9.15401138 24.9327002 10.5623005 28.3125 12.0625 C28.95767578 12.34416016 29.60285156 12.62582031 30.26757812 12.91601562 C31.84698358 13.6062743 33.42376493 14.30253198 35 15 C33.73516196 19.00550456 32.26513075 22.7370042 30.41796875 26.5078125 C29.90508301 27.56194336 29.39219727 28.61607422 28.86376953 29.70214844 C28.31060059 30.83168945 27.75743164 31.96123047 27.1875 33.125 C25.99830263 35.56886281 24.81290557 38.01455257 23.62890625 40.4609375 C23.17430023 41.39987854 23.17430023 41.39987854 22.71051025 42.35778809 C19.60595931 48.7867397 16.61186887 55.26565477 13.625 61.75 C8.65987304 72.51661341 3.53895308 83.19769342 -1.65255737 93.85635376 C-6.12972207 103.05421691 -10.46187274 112.30541716 -14.6496582 121.63916016 C-17.23169125 127.37376965 -19.9630792 133.00452792 -22.82202148 138.60522461 C-26.05368802 144.99067652 -29.02062149 151.49385911 -32 158 C-35.66910124 166.0119318 -39.40362091 173.9686055 -43.39648438 181.82421875 C-46.0968064 187.14391096 -48.59453894 192.54145376 -51 198 C-56.17654868 197.37126939 -60.50062712 195.0097245 -65.125 192.75 C-66.82130386 191.93294833 -68.51791732 191.11653912 -70.21484375 190.30078125 C-71.0332373 189.90584473 -71.85163086 189.5109082 -72.69482422 189.10400391 C-77.09650566 186.99593321 -81.54486269 184.99229736 -86 183 C-83.44700037 176.51930863 -80.6667339 170.20383065 -77.5 164 C-73.73290206 156.60427339 -70.22728402 149.09832245 -66.75 141.5625 C-61.08881652 129.29920758 -55.28814623 117.10756443 -49.41894531 104.94238281 C-38.4678787 82.23380491 -27.71139968 59.43142924 -17.07421875 36.57421875 C-16.75980331 35.89892624 -16.44538788 35.22363373 -16.1214447 34.52787781 C-14.64255228 31.35101654 -13.165499 28.17332723 -11.69213867 24.99389648 C-8.63396353 18.41596116 -5.48289087 11.90088916 -2.18603516 5.43896484 C-0.91244977 2.95483733 -0.91244977 2.95483733 0 0 Z " fill="#1889F8" transform="translate(1013,391)"/>
<path d="M0 0 C5.43376586 2.52951169 8.69728051 6.33252677 11.3125 11.6875 C13.03356127 19.97988613 10.57307471 27.04374228 6.88671875 34.41015625 C6.47589554 35.26250351 6.06507233 36.11485077 5.64179993 36.99302673 C4.3380849 39.69012589 3.01354555 42.37632095 1.6875 45.0625 C0.37717594 47.75447966 -0.92882459 50.44852805 -2.23466492 53.14268494 C-3.04464563 54.80964391 -3.85805843 56.47494155 -4.6756134 58.13819885 C-7.24445124 63.37228789 -9.6691795 68.65567964 -12 74 C-19.38887618 71.13978987 -26.56189324 67.76228351 -33.75 64.4375 C-34.3879248 64.14464111 -35.02584961 63.85178223 -35.68310547 63.55004883 C-39.25742504 61.88836948 -42.66161409 60.09604764 -46 58 C-45.37841025 54.03646185 -44.13701178 50.8698967 -42.375 47.2734375 C-41.83762207 46.16766357 -41.30024414 45.06188965 -40.74658203 43.92260742 C-40.17020996 42.75189697 -39.59383789 41.58118652 -39 40.375 C-37.80791278 37.94237372 -36.61851663 35.50843863 -35.4296875 33.07421875 C-35.13415985 32.4705397 -34.8386322 31.86686066 -34.53414917 31.24488831 C-32.75283616 27.59254408 -31.03884268 23.91771706 -29.3828125 20.20703125 C-28.99609375 19.34996582 -28.609375 18.49290039 -28.2109375 17.60986328 C-27.511957 16.05067161 -26.82595661 14.48556196 -26.15625 12.91357422 C-20.7467514 0.97584434 -12.42719953 -1.01908698 0 0 Z " fill="#1889F9" transform="translate(1064,326)"/>
<path d="M0 0 C5.92497525 1.76147913 11.40650709 4.40699004 17 7 C18.95739277 7.89788659 20.91569949 8.79378398 22.875 9.6875 C23.73867188 10.08324219 24.60234375 10.47898437 25.4921875 10.88671875 C27.2230272 11.65508217 28.98158149 12.36287928 30.7578125 13.01953125 C33 14 33 14 34 16 C33.690625 16.78375 33.38125 17.5675 33.0625 18.375 C30.99154445 25.44061305 31.6658496 32.82760743 33 40 C32.05640625 40.4846875 31.1128125 40.969375 30.140625 41.46875 C22.52421286 45.42988207 15.3290038 49.59368154 8.29296875 54.53125 C6 56 6 56 4 56 C4 56.66 4 57.32 4 58 C2.46875 59.2890625 2.46875 59.2890625 0.5 60.625 C-0.1496875 61.07101562 -0.799375 61.51703125 -1.46875 61.9765625 C-1.9740625 62.31429687 -2.479375 62.65203125 -3 63 C-3.66 62.67 -4.32 62.34 -5 62 C-3.20468756 58.12169668 -1.40817816 54.24395073 0.3894043 50.36669922 C0.99975337 49.04979159 1.60978484 47.73273672 2.21948242 46.41552734 C3.09989702 44.51360145 3.98148246 42.61222196 4.86328125 40.7109375 C5.39219971 39.56931152 5.92111816 38.42768555 6.46606445 37.25146484 C7.50246015 35.05462927 8.58735402 32.88012393 9.71557617 30.72900391 C11.2355962 28.1371621 11.2355962 28.1371621 10.6875 25.625 C10.460625 25.08875 10.23375 24.5525 10 24 C7.6019596 24.01495528 7.6019596 24.01495528 5 25 C3.05663972 27.73207958 3.05663972 27.73207958 1.5546875 31.23046875 C1.25813263 31.85850906 0.96157776 32.48654938 0.65603638 33.13362122 C-0.28851938 35.14392824 -1.20699446 37.16495134 -2.125 39.1875 C-2.74959054 40.53009443 -3.37587526 41.8719021 -4.00390625 43.21289062 C-5.1645844 45.69488864 -6.31288305 48.18124578 -7.45361328 50.67260742 C-8.91291793 53.81262369 -10.43552607 56.9112647 -12 60 C-12.33 60 -12.66 60 -13 60 C-13.02578125 58.75089844 -13.0515625 57.50179687 -13.078125 56.21484375 C-13.48298002 42.53074419 -15.34828571 29.42073329 -18 16 C-16.40278204 14.93518803 -14.79520964 13.88175285 -13.1328125 12.921875 C-7.18984664 9.45321788 -3.82727838 5.74091758 0 0 Z " fill="#1889F8" transform="translate(924,581)"/>
<path d="M0 0 C1.67542976 0.28604898 3.34385343 0.61781233 5 1 C5.93077943 4.01682039 6.16089689 5.57716297 5.0234375 8.56640625 C4.20746094 10.04947266 4.20746094 10.04947266 3.375 11.5625 C2.71167509 12.81535148 2.05327074 14.0708143 1.3984375 15.328125 C1.02041992 16.05322266 0.64240234 16.77832031 0.25292969 17.52539062 C-2.29539799 22.55848675 -4.63341014 27.69215762 -7 32.8125 C-7.54881836 33.99674561 -8.09763672 35.18099121 -8.66308594 36.40112305 C-11.78150141 43.14078565 -14.86619089 49.89536493 -17.9296875 56.66015625 C-18.25906311 57.3870314 -18.58843872 58.11390656 -18.92779541 58.86280823 C-20.5264541 62.39206299 -22.12173656 65.92277511 -23.7109375 69.45629883 C-27.13446901 77.04541556 -30.71350647 84.52830673 -34.46875 91.95898438 C-36.23456701 95.4658429 -37.91484437 98.99877366 -39.5625 102.5625 C-39.84424072 103.17037354 -40.12598145 103.77824707 -40.41625977 104.40454102 C-41.27963956 106.26871685 -42.14001606 108.13425556 -43 110 C-43.59101955 111.27870421 -44.1821645 112.55735047 -44.7734375 113.8359375 C-46.18438048 116.88966855 -47.5932589 119.9443316 -49 123 C-50.98 123 -52.96 123 -55 123 C-55.7398993 120.33357046 -56.213115 118.60906637 -55.28515625 115.95703125 C-54.88167969 115.24933594 -54.47820313 114.54164063 -54.0625 113.8125 C-51.51244306 109.06557961 -49.28467417 104.24482004 -47.125 99.3125 C-44.41522826 93.16060288 -41.64867935 87.04510825 -38.78344727 80.96386719 C-36.59474955 76.30623033 -34.46989216 71.62171646 -32.35546875 66.92993164 C-29.0743648 59.65338974 -25.77104839 52.41410313 -22.125 45.3125 C-17.80887014 36.90480478 -14.06216019 28.24383256 -10.29931641 19.57739258 C-3.08663528 3.08663528 -3.08663528 3.08663528 0 0 Z " fill="#EECA09" transform="translate(1019,414)"/>
<path d="M0 0 C0.93328125 -0.00773438 1.8665625 -0.01546875 2.828125 -0.0234375 C8.84591908 -0.00662802 14.17234964 0.74531978 20 2.25 C20 2.91 20 3.57 20 4.25 C18.03136927 5.80449804 16.07395892 7.22404762 14 8.625 C13.44699219 9.01171875 12.89398437 9.3984375 12.32421875 9.796875 C-0.51084701 18.58963269 -17.16415409 23.99037845 -32.7578125 23.8515625 C-35.78853168 23.03844272 -37.07673971 21.6913989 -39 19.25 C-39.25 15.875 -39.25 15.875 -38 12.25 C-28.58724955 2.01028956 -13.12180823 -0.10874427 0 0 Z " fill="#1989F6" transform="translate(840,688.75)"/>
<path d="M0 0 C-1.38188453 3.21043882 -2.92421903 5.04936365 -5.625 7.25 C-6.57246094 8.03117188 -6.57246094 8.03117188 -7.5390625 8.828125 C-8.02117188 9.21484375 -8.50328125 9.6015625 -9 10 C-9 7 -9 7 -7.5390625 5.17578125 C-6.90742187 4.56089844 -6.27578125 3.94601562 -5.625 3.3125 C-4.68527344 2.37857422 -4.68527344 2.37857422 -3.7265625 1.42578125 C-2 0 -2 0 0 0 Z " fill="#E9C912" transform="translate(769,671)"/>
<path d="M0 0 C0.33 0.66 0.66 1.32 1 2 C2.65 1.67 4.3 1.34 6 1 C6 1.66 6 2.32 6 3 C4.46875 4.2890625 4.46875 4.2890625 2.5 5.625 C1.8503125 6.07101562 1.200625 6.51703125 0.53125 6.9765625 C0.0259375 7.31429687 -0.479375 7.65203125 -1 8 C-1.66 7.67 -2.32 7.34 -3 7 C-2.01 4.69 -1.02 2.38 0 0 Z " fill="#2E8FDA" transform="translate(922,636)"/>
<path d="M0 0 C0.99 0.33 1.98 0.66 3 1 C0.36 3.64 -2.28 6.28 -5 9 C-5.33 8.01 -5.66 7.02 -6 6 C-4.02 4.02 -2.04 2.04 0 0 Z " fill="#1D8AEC" transform="translate(919,654)"/>
<path d="M0 0 C0.33 0 0.66 0 1 0 C1 2.64 1 5.28 1 8 C-1.31 8 -3.62 8 -6 8 C-5.195625 7.236875 -4.39125 6.47375 -3.5625 5.6875 C-0.83200976 3.20569102 -0.83200976 3.20569102 0 0 Z " fill="#313649" transform="translate(1919,1072)"/>
<path d="M0 0 C0.99 1.485 0.99 1.485 2 3 C3.32381517 4.67423683 4.65576661 6.34211215 6 8 C4.02 8 2.04 8 0 8 C0 5.36 0 2.72 0 0 Z " fill="#313547" transform="translate(0,1072)"/>
<path d="M0 0 C2.64 0 5.28 0 8 0 C8 1.98 8 3.96 8 6 C7.236875 5.38125 6.47375 4.7625 5.6875 4.125 C3.00374191 1.94402948 3.00374191 1.94402948 0 0 Z " fill="#313546" transform="translate(1912,0)"/>
<path d="M0 0 C1.98 0 3.96 0 6 0 C4.07423885 2.43929746 2.19909405 4.80090595 0 7 C0 4.69 0 2.38 0 0 Z " fill="#323241" transform="translate(0,0)"/>
<path d="M0 0 C0.99 0.33 1.98 0.66 3 1 C1.38405168 3.04119788 -0.2856382 5.04072937 -2 7 C-2.66 7 -3.32 7 -4 7 C-2.92598892 4.08482708 -2.22189824 2.22189824 0 0 Z " fill="#218BE8" transform="translate(1044,330)"/>
</svg>
