<?xml version="1.0" encoding="UTF-8"?>
<svg version="1.1" xmlns="http://www.w3.org/2000/svg" width="1920" height="1080">
<path d="M0 0 C633.6 0 1267.2 0 1920 0 C1920 356.4 1920 712.8 1920 1080 C1286.4 1080 652.8 1080 0 1080 C0 723.6 0 367.2 0 0 Z " fill="#202121" transform="translate(0,0)"/>
<path d="M0 0 C0 95.7 0 191.4 0 290 C-28.71 290 -57.42 290 -87 290 C-88.125 276.5 -88.125 276.5 -88.12025452 271.65960693 C-88.12162918 270.55768509 -88.12300385 269.45576324 -88.12442017 268.32044983 C-88.12082489 267.15734787 -88.11722961 265.99424591 -88.11352539 264.79589844 C-88.11367142 263.53593552 -88.11381744 262.2759726 -88.1139679 260.97782898 C-88.11425175 257.5633445 -88.1084223 254.14889602 -88.10139394 250.73441982 C-88.09509117 247.15101243 -88.09455117 243.56760398 -88.09336853 239.98419189 C-88.09027545 233.21659232 -88.08208966 226.44900914 -88.07201904 219.68141675 C-88.06079466 211.96907467 -88.0553316 204.25673176 -88.05032361 196.54438353 C-88.03990509 180.69624623 -88.02234531 164.84812524 -88 149 C-92.25484345 151.03759537 -95.02263557 152.73455421 -98.05859375 156.36328125 C-103.23555033 162.3360255 -108.75165589 167.90285767 -114.34790039 173.47827148 C-116.0670867 175.19207233 -117.78082583 176.91119082 -119.49414062 178.63085938 C-120.61165855 179.74771673 -121.72948652 180.86426397 -122.84765625 181.98046875 C-123.34685074 182.48168747 -123.84604523 182.98290619 -124.36036682 183.49931335 C-127.0682369 186.1897952 -129.84450188 188.75171597 -132.74082947 191.23884583 C-136.75683629 194.74155062 -140.54750393 198.41871787 -144.29882812 202.20117188 C-144.97964951 202.88345352 -145.66047089 203.56573517 -146.36192322 204.26869202 C-147.82581604 205.7363622 -149.28855359 207.20518542 -150.75022888 208.67506409 C-153.06939513 211.00710692 -155.39176959 213.33591268 -157.71496582 215.66394043 C-162.64613431 220.60648286 -167.57335913 225.55294504 -172.5 230.5 C-178.21334128 236.23701516 -183.92832723 241.97237172 -189.64756775 247.70350647 C-191.92503874 249.98741518 -194.19945406 252.27433646 -196.47375488 254.56140137 C-197.88274414 255.97402632 -199.29187578 257.38650929 -200.70117188 258.79882812 C-201.32374374 259.42656631 -201.94631561 260.0543045 -202.5877533 260.70106506 C-206.32588704 264.43964034 -210.18484002 267.97904193 -214.19722748 271.42208099 C-216.98806745 273.86482925 -219.58767641 276.48222824 -222.1875 279.125 C-222.7343042 279.67559082 -223.2811084 280.22618164 -223.84448242 280.79345703 C-225.56549507 282.52650817 -227.28317832 284.26279773 -229 286 C-241.98059318 299.13468728 -241.98059318 299.13468728 -248.23828125 304.4609375 C-251.31535967 307.14911687 -254.14325435 310.08179287 -257 313 C-261.29241971 317.34264347 -265.61534573 321.54675785 -270.27734375 325.49609375 C-272.10430507 327.09105998 -273.80059287 328.77017842 -275.5 330.5 C-278.49079152 333.53805007 -281.62038494 336.34959835 -284.8515625 339.12890625 C-287.17050317 341.14849276 -289.42528585 343.22965234 -291.6875 345.3125 C-317.38105185 368.3158317 -348.07450153 379.57465359 -381.3125 387.25 C-381.95614502 387.40122314 -382.59979004 387.55244629 -383.26293945 387.70825195 C-395.81010314 390.45464015 -408.4420066 391.29777777 -421.25146484 391.31884766 C-422.6997786 391.32818464 -424.14808716 391.33835862 -425.59638977 391.34928894 C-429.48916025 391.37630521 -433.38189499 391.39167433 -437.27473402 391.40471697 C-441.41932993 391.42061607 -445.56385788 391.44735849 -449.70840454 391.4727478 C-456.70011281 391.51411507 -463.69182576 391.54861555 -470.68359375 391.578125 C-480.35473065 391.6189491 -490.02577214 391.67178592 -499.69683409 391.7273469 C-514.79922874 391.81380866 -529.90160027 391.88322464 -545.00415373 391.93496561 C-554.42215457 391.96740014 -563.83964786 392.01679141 -573.25736809 392.09687996 C-578.03562312 392.13594051 -582.81389828 392.16400149 -587.59224319 392.18943405 C-589.7424287 392.20361996 -591.89258705 392.22299999 -594.04267502 392.24791336 C-596.91738897 392.280775 -599.79163508 392.29582227 -602.66650391 392.30615234 C-603.91186857 392.32758615 -603.91186857 392.32758615 -605.18239212 392.34945297 C-607.44668579 392.3465271 -607.44668579 392.3465271 -611 392 C-618.53816117 380.69275824 -616.51359374 362.34805136 -616.4375 349.375 C-616.43479095 348.2958432 -616.43208191 347.2166864 -616.42929077 346.10482788 C-616.36212501 328.43663798 -615.3623223 311.38334241 -612 294 C-611.80744629 292.98534668 -611.61489258 291.97069336 -611.41650391 290.92529297 C-601.4444172 239.88187169 -572.38671426 199.94649318 -537.50439453 162.62207031 C-535.97773162 160.97598975 -534.46926263 159.31485584 -532.96484375 157.6484375 C-514.1928755 136.90397557 -492.28010153 121.76429667 -467 110 C-465.94184082 109.50717529 -465.94184082 109.50717529 -464.86230469 109.00439453 C-425.83975984 91.11687901 -382.62812578 84 -340 84 C-340 113.04 -340 142.08 -340 172 C-353.86 172.33 -367.72 172.66 -382 173 C-392.67083819 174.4806353 -392.67083819 174.4806353 -403 177 C-403.73283203 177.21285645 -404.46566406 177.42571289 -405.22070312 177.64501953 C-427.1261704 184.23294987 -446.81178996 196.26994633 -464.40234375 210.69482422 C-465.92322317 211.93727858 -467.46121516 213.15869796 -469 214.37890625 C-489.99083511 231.1424204 -503.13294841 253.25552352 -515 277 C-515.38671875 277.77375977 -515.7734375 278.54751953 -516.171875 279.34472656 C-522.32736002 291.56503349 -522.32736002 291.56503349 -523 305 C-516.37725882 306.69644709 -510.38282372 307.28332733 -503.5625 307.23046875 C-502.57663406 307.23046371 -501.59076813 307.23045868 -500.57502747 307.23045349 C-497.38321715 307.22696668 -494.19174239 307.20809208 -491 307.1875 C-488.78605229 307.17929059 -486.57210369 307.17131707 -484.3581543 307.16357422 C-411.05548172 307.93663535 -411.05548172 307.93663535 -346 278 C-345.09636719 277.30777344 -344.19273437 276.61554688 -343.26171875 275.90234375 C-331.23239961 266.49216097 -320.6019335 255.704818 -309.875 244.875 C-307.06289829 242.0360616 -304.24732735 239.20062823 -301.4296875 236.3671875 C-300.80238739 235.73158905 -300.17508728 235.0959906 -299.52877808 234.44113159 C-296.63231695 231.52892857 -293.70871746 228.72044413 -290.57096863 226.06898499 C-284.49388152 220.77350718 -278.86890284 215.00848205 -273.17749023 209.30688477 C-271.8972502 208.02800183 -270.61679797 206.74933127 -269.33615112 205.47085571 C-265.87731911 202.01656126 -262.42163219 198.55913673 -258.96665835 195.10098386 C-255.33995656 191.47173941 -251.71080312 187.84494786 -248.08204651 184.21775818 C-241.9901542 178.12768201 -235.90036609 172.03550772 -229.81176758 165.94213867 C-222.78586992 158.91079947 -215.75637722 151.88306982 -208.72500652 144.85720402 C-202.67368177 138.81042622 -196.62431917 132.76169061 -190.57657391 126.71133274 C-186.97083258 123.10403734 -183.36443081 119.49740918 -179.7562542 115.89254951 C-176.3632314 112.50242844 -172.97268917 109.1098454 -169.58399582 105.71539688 C-168.34451588 104.47460166 -167.10419715 103.23464365 -165.86295128 101.99561501 C-160.17875004 96.32062724 -154.51563559 90.66549615 -149.31157684 84.538414 C-147.52152782 82.43877608 -145.60889142 80.47937668 -143.66015625 78.52734375 C-142.90669922 77.77259766 -142.15324219 77.01785156 -141.37695312 76.24023438 C-140.61318359 75.48033203 -139.84941406 74.72042969 -139.0625 73.9375 C-137.92264648 72.7918457 -137.92264648 72.7918457 -136.75976562 71.62304688 C-132.00302639 66.87443188 -127.10555099 62.36925882 -122 58 C-121.01257812 57.13117188 -120.02515625 56.26234375 -119.0078125 55.3671875 C-104.73606838 43.02928405 -89.33874878 32.41190636 -73 23 C-72.30583984 22.59797363 -71.61167969 22.19594727 -70.89648438 21.78173828 C-49.57109528 9.5735068 -24.73608126 0 0 0 Z " fill="#1C64C8" transform="translate(1268,234)"/>
<path d="M0 0 C1.12566124 -0.00262848 1.12566124 -0.00262848 2.27406311 -0.00531006 C4.73107275 -0.00967813 7.18800929 -0.00681029 9.64501953 -0.00341797 C11.35897841 -0.00409203 13.0729372 -0.00506291 14.78689575 -0.00631714 C18.36591509 -0.0077869 21.94490937 -0.0056612 25.52392578 -0.00097656 C30.12087919 0.00474625 34.71777455 0.00142112 39.31472588 -0.00454903 C42.84732506 -0.00815209 46.37991033 -0.00701769 49.91250992 -0.00442123 C51.60866426 -0.0037526 53.30481986 -0.0045782 55.00097275 -0.00690079 C57.36136004 -0.00942592 59.72165117 -0.00558993 62.08203125 0 C62.78744553 -0.00202423 63.4928598 -0.00404846 64.21965027 -0.00613403 C69.03856377 0.01512627 69.03856377 0.01512627 70.15283203 1.12939453 C70.26781964 2.93244071 70.31250239 4.74000492 70.32983398 6.54663086 C70.34248291 7.71294037 70.35513184 8.87924988 70.36816406 10.0809021 C70.3757373 11.36147491 70.38331055 12.64204773 70.39111328 13.96142578 C70.39595734 14.61648731 70.40080139 15.27154884 70.40579224 15.94646072 C70.44252385 20.94493053 70.45814055 25.94330225 70.46533203 30.94189453 C70.46662991 31.67351429 70.46792778 32.40513405 70.46926498 33.1589241 C70.50016868 56.03423432 69.93789275 78.51782465 66.15283203 101.12939453 C65.9655957 102.27601563 65.77835938 103.42263672 65.58544922 104.60400391 C59.31706329 141.78127036 46.69209684 176.67927336 24.15283203 207.12939453 C23.74210449 207.69029785 23.33137695 208.25120117 22.90820312 208.82910156 C9.19583976 227.46753345 -6.54712012 244.91601467 -24.84716797 259.12939453 C-25.90087765 259.98285926 -26.95288128 260.83843343 -28.00341797 261.69580078 C-66.28996208 292.72312246 -112.30910761 312.41774008 -160.84716797 320.12939453 C-161.94230713 320.30946045 -161.94230713 320.30946045 -163.05957031 320.49316406 C-224.58352964 330.32937486 -295.64019034 309.81680633 -345.80761719 273.71875 C-349.93025991 270.65263658 -353.90400123 267.42150165 -357.84716797 264.12939453 C-358.42273438 263.6553418 -358.99830078 263.18128906 -359.59130859 262.69287109 C-372.24715754 252.24865617 -383.72163656 241.06954044 -393.84716797 228.12939453 C-394.71526509 227.0616084 -395.58513677 225.99526314 -396.45654297 224.93017578 C-410.84708425 207.20080343 -421.84471074 187.5509554 -431.78466797 167.06689453 C-432.3529834 165.9004541 -432.92129883 164.73401367 -433.50683594 163.53222656 C-434.04066895 162.41831543 -434.57450195 161.3044043 -435.12451172 160.15673828 C-435.60138428 159.16407959 -436.07825684 158.1714209 -436.56958008 157.14868164 C-437.95941488 153.8641246 -438.89309949 150.56274689 -439.84716797 147.12939453 C-427.92980291 146.75747103 -416.01383291 146.47379862 -404.09183121 146.30039978 C-398.55456827 146.21713908 -393.02129451 146.10439206 -387.48632812 145.92236328 C-382.1366998 145.74754579 -376.79088691 145.65266357 -371.43862152 145.61135864 C-369.40485292 145.58195853 -367.37127679 145.5245334 -365.33914948 145.43771362 C-349.85597823 144.80297676 -349.85597823 144.80297676 -344.83195496 148.68756104 C-341.22067573 152.45906337 -338.52266253 156.67757798 -335.96776581 161.21083069 C-327.05171024 176.47591619 -311.22384437 190.1427608 -296.84716797 200.12939453 C-296.2388916 200.56026367 -295.63061523 200.99113281 -295.00390625 201.43505859 C-257.85731242 227.52489046 -210.1340506 239.99545066 -165.02539062 232.53735352 C-129.05425865 226.01001173 -96.80006667 209.73818958 -69.84716797 185.12939453 C-68.97705078 184.34306641 -68.10693359 183.55673828 -67.21044922 182.74658203 C-46.27530796 162.85651223 -26.82758572 131.68037548 -21.84716797 103.12939453 C-21.68313477 102.23800781 -21.51910156 101.34662109 -21.35009766 100.42822266 C-15.41822519 67.57313084 -15.35158788 34.40470485 -14.84716797 1.12939453 C-9.86872883 0.31566606 -5.04789046 -0.01473901 0 0 Z " fill="#1C64C8" transform="translate(1108.84716796875,524.87060546875)"/>
<path d="M0 0 C55.44 0 110.88 0 168 0 C165.525 2.475 165.525 2.475 163 5 C161.81470703 6.20269531 161.81470703 6.20269531 160.60546875 7.4296875 C159.80753906 8.23664063 159.00960938 9.04359375 158.1875 9.875 C157.00220703 11.07769531 157.00220703 11.07769531 155.79296875 12.3046875 C152.96802899 15.03085315 150.04587761 17.59890353 147.08129883 20.17041016 C143.72907394 23.11722227 140.4929372 26.18403072 137.25 29.25 C131.55893096 34.60874384 125.83096552 39.92029879 120.05859375 45.19140625 C116.51537135 48.43556339 113.00836194 51.71824097 109.5 55 C98.54126348 65.24876902 98.54126348 65.24876902 93.19282532 70.01541138 C91.06649114 71.95073426 89.11684437 73.94974799 87.21931458 76.10870361 C82.36536488 81.42914964 78.09628931 85.51882605 70.70164299 86.27297211 C66.75146216 86.43009863 62.83516365 86.32778506 58.88671875 86.171875 C57.37102582 86.15417912 55.85525889 86.14196932 54.33947754 86.13525391 C48.78768272 86.07294199 43.23746919 85.90540418 37.6875 85.75 C25.250625 85.5025 12.81375 85.255 0 85 C0 56.95 0 28.9 0 0 Z " fill="#1C64C8" transform="translate(977,232)"/>
</svg>
