<?xml version="1.0" encoding="UTF-8"?>
<svg version="1.1" xmlns="http://www.w3.org/2000/svg" width="1080" height="1080">
<path d="M0 0 C22.44 0 44.88 0 68 0 C77.10878032 13.66317047 86.20858726 27.31664398 95.15234375 41.0859375 C99.25653369 47.39828531 103.37771264 53.69946117 107.5 60 C115.9569992 72.92979086 124.39706531 85.87057783 132.83398438 98.81347656 C140.0484863 109.88056852 147.26900751 120.94367423 154.5 132 C155.9283989 134.18488702 157.35678439 136.3697828 158.78515625 138.5546875 C161.54080202 142.76965223 164.29891169 146.98298963 167.05859375 151.1953125 C168.35162251 153.17183575 169.64459384 155.14839656 170.9375 157.125 C171.50339844 157.98738281 172.06929687 158.84976563 172.65234375 159.73828125 C177.89165513 167.75491278 182.92023953 175.87238325 188 184 C188 123.28 188 62.56 188 0 C207.8 0 227.6 0 248 0 C248 90.42 248 180.84 248 274 C226.88 274 205.76 274 184 274 C179.96010975 268.22872822 175.94358822 262.48900525 172.09375 256.59765625 C171.65603271 255.93064194 171.21831543 255.26362762 170.76733398 254.57640076 C169.34348599 252.406017 167.92175178 250.23425736 166.5 248.0625 C165.48388635 246.51291434 164.4676069 244.96343738 163.45117188 243.4140625 C161.34441297 240.20240417 159.23836045 236.99028437 157.1328125 233.77783203 C152.73476612 227.06887578 148.32801214 220.36564595 143.92138672 213.662323 C141.53051792 210.02514917 139.14029353 206.3875519 136.75 202.75 C135.79166971 201.29166467 134.83333638 199.83333133 133.875 198.375 C128.12500007 189.6250001 128.12500007 189.6250001 126.68756104 187.43759155 C125.72902588 185.97895198 124.77048909 184.52031347 123.81195068 183.06167603 C121.41919199 179.42053695 119.02646134 175.77937946 116.63378906 172.13818359 C111.30216936 164.02453839 105.96986181 155.91134609 100.63659668 147.79878235 C98.21665001 144.11754583 95.79721315 140.43597609 93.37890625 136.75366211 C92.90996948 136.03962723 92.44103271 135.32559235 91.95788574 134.58992004 C91.02077406 133.16300151 90.08368081 131.73607085 89.14660645 130.30912781 C86.40524514 126.13575833 83.65956414 121.96527347 80.91009521 117.79724121 C79.17865138 115.17155261 77.44964728 112.54426298 75.72106934 109.91668701 C74.92539976 108.70846718 74.12865855 107.50095218 73.33068848 106.29425049 C72.22796557 104.62647289 71.1295508 102.9558493 70.03125 101.28515625 C69.41830078 100.35582275 68.80535156 99.42648926 68.17382812 98.46899414 C64.99053288 93.38909273 62.02065393 88.17826388 59 83 C59 146.03 59 209.06 59 274 C39.53 274 20.06 274 0 274 C0 183.58 0 93.16 0 0 Z " fill="#000000" transform="translate(572,404)"/>
<path d="M0 0 C22.44 0 44.88 0 68 0 C77.10878032 13.66317047 86.20858726 27.31664398 95.15234375 41.0859375 C99.25653369 47.39828531 103.37771264 53.69946117 107.5 60 C115.9569992 72.92979086 124.39706531 85.87057783 132.83398438 98.81347656 C140.0484863 109.88056852 147.26900751 120.94367423 154.5 132 C155.9283989 134.18488702 157.35678439 136.3697828 158.78515625 138.5546875 C161.54080202 142.76965223 164.29891169 146.98298963 167.05859375 151.1953125 C168.35162251 153.17183575 169.64459384 155.14839656 170.9375 157.125 C171.50339844 157.98738281 172.06929687 158.84976563 172.65234375 159.73828125 C177.89165513 167.75491278 182.92023953 175.87238325 188 184 C188 123.28 188 62.56 188 0 C207.8 0 227.6 0 248 0 C248 90.42 248 180.84 248 274 C226.88 274 205.76 274 184 274 C179.96010975 268.22872822 175.94358822 262.48900525 172.09375 256.59765625 C171.65603271 255.93064194 171.21831543 255.26362762 170.76733398 254.57640076 C169.34348599 252.406017 167.92175178 250.23425736 166.5 248.0625 C165.48388635 246.51291434 164.4676069 244.96343738 163.45117188 243.4140625 C161.34441297 240.20240417 159.23836045 236.99028437 157.1328125 233.77783203 C152.73476612 227.06887578 148.32801214 220.36564595 143.92138672 213.662323 C141.53051792 210.02514917 139.14029353 206.3875519 136.75 202.75 C135.79166971 201.29166467 134.83333638 199.83333133 133.875 198.375 C128.12500007 189.6250001 128.12500007 189.6250001 126.68756104 187.43759155 C125.72902588 185.97895198 124.77048909 184.52031347 123.81195068 183.06167603 C121.41919199 179.42053695 119.02646134 175.77937946 116.63378906 172.13818359 C111.30216936 164.02453839 105.96986181 155.91134609 100.63659668 147.79878235 C98.21665001 144.11754583 95.79721315 140.43597609 93.37890625 136.75366211 C92.90996948 136.03962723 92.44103271 135.32559235 91.95788574 134.58992004 C91.02077406 133.16300151 90.08368081 131.73607085 89.14660645 130.30912781 C86.40524514 126.13575833 83.65956414 121.96527347 80.91009521 117.79724121 C79.17865138 115.17155261 77.44964728 112.54426298 75.72106934 109.91668701 C74.92539976 108.70846718 74.12865855 107.50095218 73.33068848 106.29425049 C72.22796557 104.62647289 71.1295508 102.9558493 70.03125 101.28515625 C69.41830078 100.35582275 68.80535156 99.42648926 68.17382812 98.46899414 C64.99053288 93.38909273 62.02065393 88.17826388 59 83 C59 146.03 59 209.06 59 274 C39.53 274 20.06 274 0 274 C0 183.58 0 93.16 0 0 Z " fill="#000000" transform="translate(262,404)"/>
</svg>
