<?xml version="1.0" encoding="UTF-8"?>
<!DOCTYPE svg PUBLIC "-//W3C//DTD SVG 1.1//EN" "http://www.w3.org/Graphics/SVG/1.1/DTD/svg11.dtd">
<svg xmlns="http://www.w3.org/2000/svg" version="1.1" width="1920px" height="1080px" style="shape-rendering:geometricPrecision; text-rendering:geometricPrecision; image-rendering:optimizeQuality; fill-rule:evenodd; clip-rule:evenodd" xmlns:xlink="http://www.w3.org/1999/xlink">
<g><path style="opacity:1" fill="#fdf8ee" d="M -0.5,-0.5 C 639.5,-0.5 1279.5,-0.5 1919.5,-0.5C 1919.5,359.5 1919.5,719.5 1919.5,1079.5C 1279.5,1079.5 639.5,1079.5 -0.5,1079.5C -0.5,719.5 -0.5,359.5 -0.5,-0.5 Z"/></g>
<g><path style="opacity:1" fill="#767777" d="M 1184.5,115.5 C 1173.92,88.5369 1154.26,73.0369 1125.5,69C 1018.85,67.3594 912.183,67.026 805.5,68C 771.023,67.8047 747.523,83.638 735,115.5C 734.304,118.478 733.804,121.478 733.5,124.5C 731.509,136.394 730.509,148.394 730.5,160.5C 730.5,163.833 730.5,167.167 730.5,170.5C 729.833,199.5 729.167,228.5 728.5,257.5C 728.333,219.832 728.5,182.165 729,144.5C 728.933,108.424 745.433,83.5906 778.5,70C 788.05,67.9443 797.717,66.611 807.5,66C 907.5,65.3333 1007.5,65.3333 1107.5,66C 1140.87,64.2627 1165.71,77.7627 1182,106.5C 1183.43,109.353 1184.26,112.353 1184.5,115.5 Z"/></g>
<g><path style="opacity:1" fill="#2b2e33" d="M 1184.5,115.5 C 1184.51,118.545 1184.84,121.545 1185.5,124.5C 1184.5,124.53 1183.84,124.03 1183.5,123C 1182.33,117.991 1180.66,113.157 1178.5,108.5C 1177.64,107.575 1176.64,106.908 1175.5,106.5C 1175.66,105.127 1175.49,103.793 1175,102.5C 1168.15,94.9853 1160.65,88.1519 1152.5,82C 1139.3,75.4646 1125.3,72.1313 1110.5,72C 1007.67,71.1675 904.999,71.3341 802.5,72.5C 776.844,72.4891 757.177,83.1557 743.5,104.5C 742.094,106.474 740.594,108.474 739,110.5C 737.524,114.725 736.19,119.058 735,123.5C 734.617,124.056 734.117,124.389 733.5,124.5C 733.804,121.478 734.304,118.478 735,115.5C 747.523,83.638 771.023,67.8047 805.5,68C 912.183,67.026 1018.85,67.3594 1125.5,69C 1154.26,73.0369 1173.92,88.5369 1184.5,115.5 Z"/></g>
<g><path style="opacity:1" fill="#101112" d="M 802.5,72.5 C 904.999,71.3341 1007.67,71.1675 1110.5,72C 1125.3,72.1313 1139.3,75.4646 1152.5,82C 1160.65,88.1519 1168.15,94.9853 1175,102.5C 1175.49,103.793 1175.66,105.127 1175.5,106.5C 1178.54,112.463 1180.71,118.796 1182,125.5C 1183.07,140.814 1183.74,156.147 1184,171.5C 1184.67,417.167 1184.67,662.833 1184,908.5C 1184.24,926.647 1182.91,944.647 1180,962.5C 1179.77,961.263 1179.27,960.263 1178.5,959.5C 1179.71,951.219 1180.55,942.886 1181,934.5C 1181.67,672.167 1181.67,409.833 1181,147.5C 1182.92,121.683 1173.75,101.017 1153.5,85.5C 1145.57,80.3734 1136.91,77.2067 1127.5,76C 1019.18,74.53 910.848,74.03 802.5,74.5C 805.423,73.5928 809.756,73.0928 815.5,73C 811.179,72.501 806.846,72.3343 802.5,72.5 Z"/></g>
<g><path style="opacity:1" fill="#040404" d="M 802.5,74.5 C 910.848,74.03 1019.18,74.53 1127.5,76C 1136.91,77.2067 1145.57,80.3734 1153.5,85.5C 1173.75,101.017 1182.92,121.683 1181,147.5C 1181.67,409.833 1181.67,672.167 1181,934.5C 1180.55,942.886 1179.71,951.219 1178.5,959.5C 1172.47,982.194 1158.14,996.527 1135.5,1002.5C 1129.83,1002.87 1124.16,1003.37 1118.5,1004C 1018.17,1004.5 917.834,1004.67 817.5,1004.5C 806.773,1004.76 796.106,1004.1 785.5,1002.5C 762.111,997.443 747.111,983.443 740.5,960.5C 738.022,943.29 736.855,925.956 737,908.5C 736.668,703.195 736.501,498.028 736.5,293C 736.42,241.492 736.92,189.992 738,138.5C 741.483,98.85 762.983,77.5167 802.5,74.5 Z"/></g>
<g><path style="opacity:1" fill="#fefefe" d="M 796.5,88.5 C 820.836,88.3334 845.169,88.5 869.5,89C 870.931,89.4652 872.097,90.2986 873,91.5C 871.779,101.781 874.279,110.948 880.5,119C 883.339,120.92 886.339,122.587 889.5,124C 912.667,124.167 935.833,124.333 959,124.5C 983.228,124.652 1007.39,124.152 1031.5,123C 1038.58,119.587 1043.08,114.087 1045,106.5C 1045.33,101.5 1045.67,96.5 1046,91.5C 1046.83,90.6667 1047.67,89.8333 1048.5,89C 1072.17,88.3333 1095.83,88.3333 1119.5,89C 1144.01,92.8397 1159.84,106.673 1167,130.5C 1167.67,402.5 1167.67,674.5 1167,946.5C 1160.7,971.472 1144.86,985.972 1119.5,990C 1011.83,990.667 904.167,990.667 796.5,990C 773.186,984.685 758.352,970.518 752,947.5C 751.333,675.167 751.333,402.833 752,130.5C 758.356,107.305 773.19,93.3053 796.5,88.5 Z"/></g>
<g><path style="opacity:1" fill="#797a7b" d="M 1184.5,115.5 C 1185.6,117.277 1186.43,119.277 1187,121.5C 1189.2,137.754 1190.04,154.087 1189.5,170.5C 1189.17,170.5 1188.83,170.5 1188.5,170.5C 1188.73,154.935 1187.73,139.602 1185.5,124.5C 1184.84,121.545 1184.51,118.545 1184.5,115.5 Z"/></g>
<g><path style="opacity:1" fill="#0a0b0c" d="M 802.5,72.5 C 806.846,72.3343 811.179,72.501 815.5,73C 809.756,73.0928 805.423,73.5928 802.5,74.5C 762.983,77.5167 741.483,98.85 738,138.5C 736.92,189.992 736.42,241.492 736.5,293C 736.501,498.028 736.668,703.195 737,908.5C 736.855,925.956 738.022,943.29 740.5,960.5C 739.883,960.389 739.383,960.056 739,959.5C 735.134,943.039 733.967,926.372 735.5,909.5C 735.333,651.5 735.5,393.5 736,135.5C 736.776,124.732 739.276,114.398 743.5,104.5C 757.177,83.1557 776.844,72.4891 802.5,72.5 Z"/></g>
<g><path style="opacity:1" fill="#3b3d3f" d="M 730.5,160.5 C 731.833,160.5 733.167,160.5 734.5,160.5C 734.5,163.833 734.5,167.167 734.5,170.5C 733.167,170.5 731.833,170.5 730.5,170.5C 730.5,167.167 730.5,163.833 730.5,160.5 Z"/></g>
<g><path style="opacity:1" fill="#171b21" d="M 730.5,170.5 C 731.833,170.5 733.167,170.5 734.5,170.5C 734.167,417.001 734.5,663.334 735.5,909.5C 733.967,926.372 735.134,943.039 739,959.5C 739.383,960.056 739.883,960.389 740.5,960.5C 747.111,983.443 762.111,997.443 785.5,1002.5C 796.106,1004.1 806.773,1004.76 817.5,1004.5C 819.219,1005.02 820.552,1006.02 821.5,1007.5C 821.5,1008.83 821.5,1010.17 821.5,1011.5C 810.839,1011.02 800.172,1010.69 789.5,1010.5C 789.167,1010.5 788.833,1010.5 788.5,1010.5C 785.314,1008.13 781.647,1007.13 777.5,1007.5C 770.143,1005.99 763.809,1002.66 758.5,997.5C 753.554,992.382 748.721,987.049 744,981.5C 740.276,975.385 737.109,969.051 734.5,962.5C 732.302,950.955 731.136,939.288 731,927.5C 730.5,675.167 730.333,422.834 730.5,170.5 Z"/></g>
<g><path style="opacity:1" fill="#171b21" d="M 1175.5,106.5 C 1176.64,106.908 1177.64,107.575 1178.5,108.5C 1180.66,113.157 1182.33,117.991 1183.5,123C 1183.84,124.03 1184.5,124.53 1185.5,124.5C 1187.73,139.602 1188.73,154.935 1188.5,170.5C 1188.67,422.834 1188.5,675.167 1188,927.5C 1187.94,942.237 1185.6,956.57 1181,970.5C 1174.46,983.87 1164.96,994.537 1152.5,1002.5C 1138.8,1008.07 1124.46,1010.91 1109.5,1011C 1016.5,1011.5 923.501,1011.67 830.5,1011.5C 830.5,1010.17 830.5,1008.83 830.5,1007.5C 923.501,1007.67 1016.5,1007.5 1109.5,1007C 1115.24,1006.91 1119.58,1006.41 1122.5,1005.5C 1127.51,1004.97 1131.84,1003.97 1135.5,1002.5C 1158.14,996.527 1172.47,982.194 1178.5,959.5C 1179.27,960.263 1179.77,961.263 1180,962.5C 1182.91,944.647 1184.24,926.647 1184,908.5C 1184.67,662.833 1184.67,417.167 1184,171.5C 1183.74,156.147 1183.07,140.814 1182,125.5C 1180.71,118.796 1178.54,112.463 1175.5,106.5 Z"/></g>
<g><path style="opacity:1" fill="#171717" d="M 893.5,221.5 C 893.116,223.665 893.783,225.332 895.5,226.5C 896.429,225.311 896.762,223.978 896.5,222.5C 897.482,219.237 898.149,215.903 898.5,212.5C 900.288,212.215 901.955,212.548 903.5,213.5C 901.412,217.614 900.079,221.947 899.5,226.5C 898.076,228.515 897.41,230.848 897.5,233.5C 896.022,233.762 894.689,233.429 893.5,232.5C 893.006,230.974 892.339,229.641 891.5,228.5C 891.59,225.848 890.924,223.515 889.5,221.5C 887.194,225.085 885.861,229.085 885.5,233.5C 883.533,233.739 881.699,233.406 880,232.5C 878.47,226.078 876.637,219.744 874.5,213.5C 876.167,212.167 877.833,212.167 879.5,213.5C 880.668,217.846 881.834,222.179 883,226.5C 884.484,221.916 885.65,217.249 886.5,212.5C 888.167,212.5 889.833,212.5 891.5,212.5C 892.01,215.539 892.677,218.539 893.5,221.5 Z"/></g>
<g><path style="opacity:1" fill="#515151" d="M 925.5,233.5 C 925.5,226.833 925.5,220.167 925.5,213.5C 924.5,213.5 923.5,213.5 922.5,213.5C 922.5,220.167 922.5,226.833 922.5,233.5C 921.509,226.687 921.175,219.687 921.5,212.5C 923.167,212.5 924.833,212.5 926.5,212.5C 926.825,219.687 926.491,226.687 925.5,233.5 Z"/></g>
<g><path style="opacity:1" fill="#020202" d="M 925.5,233.5 C 924.5,233.5 923.5,233.5 922.5,233.5C 922.5,226.833 922.5,220.167 922.5,213.5C 923.5,213.5 924.5,213.5 925.5,213.5C 925.5,220.167 925.5,226.833 925.5,233.5 Z"/></g>
<g><path style="opacity:1" fill="#8b8b8b" d="M 1016.5,214.5 C 1017.92,213.549 1019.59,213.216 1021.5,213.5C 1021.5,214.833 1021.5,216.167 1021.5,217.5C 1020.6,216.791 1020.26,215.791 1020.5,214.5C 1019.17,214.5 1017.83,214.5 1016.5,214.5 Z"/></g>
<g><path style="opacity:1" fill="#1c1c1c" d="M 1016.5,214.5 C 1017.83,214.5 1019.17,214.5 1020.5,214.5C 1020.26,215.791 1020.6,216.791 1021.5,217.5C 1022.09,218.151 1022.76,218.818 1023.5,219.5C 1022.76,220.182 1022.09,220.849 1021.5,221.5C 1021.32,225.682 1021.99,229.682 1023.5,233.5C 1020.96,233.896 1018.79,233.229 1017,231.5C 1016.87,227.338 1016.03,223.338 1014.5,219.5C 1015.55,217.944 1016.21,216.277 1016.5,214.5 Z"/></g>
<g><path style="opacity:1" fill="#595959" d="M 913.5,218.5 C 911.097,218.448 908.764,218.781 906.5,219.5C 907.312,218.007 908.645,217.34 910.5,217.5C 911.726,217.52 912.726,217.853 913.5,218.5 Z"/></g>
<g><path style="opacity:1" fill="#666666" d="M 939.5,218.5 C 936.763,218.401 934.096,218.735 931.5,219.5C 932.492,217.974 933.992,217.307 936,217.5C 937.385,217.514 938.551,217.848 939.5,218.5 Z"/></g>
<g><path style="opacity:1" fill="#a0a0a0" d="M 971.5,218.5 C 974.026,217.343 976.693,217.343 979.5,218.5C 977.048,218.986 974.382,218.986 971.5,218.5 Z"/></g>
<g><path style="opacity:1" fill="#6b6b6b" d="M 1002.5,218.5 C 999.43,218.368 996.43,218.701 993.5,219.5C 993.611,218.883 993.944,218.383 994.5,218C 997.367,217.199 1000.03,217.366 1002.5,218.5 Z"/></g>
<g><path style="opacity:1" fill="#191919" d="M 913.5,218.5 C 916.167,219.167 917.833,220.833 918.5,223.5C 918.5,224.5 918.5,225.5 918.5,226.5C 914.774,226.177 911.107,226.511 907.5,227.5C 907.624,228.107 907.957,228.44 908.5,228.5C 909.134,229.947 910.301,230.613 912,230.5C 913.551,229.946 915.051,229.28 916.5,228.5C 918.711,230.052 918.378,231.552 915.5,233C 906.356,234.522 902.522,230.689 904,221.5C 904.708,220.619 905.542,219.953 906.5,219.5C 908.764,218.781 911.097,218.448 913.5,218.5 Z"/></g>
<g><path style="opacity:1" fill="#161616" d="M 939.5,218.5 C 942.297,218.967 943.631,220.633 943.5,223.5C 941.226,223.285 939.059,222.618 937,221.5C 935.893,221.585 934.893,221.919 934,222.5C 932.69,229.706 935.19,231.706 941.5,228.5C 942.167,228.833 942.833,229.167 943.5,229.5C 940.813,233.314 937.147,234.48 932.5,233C 931.117,231.729 930.117,230.229 929.5,228.5C 929.21,225.215 929.877,222.215 931.5,219.5C 934.096,218.735 936.763,218.401 939.5,218.5 Z"/></g>
<g><path style="opacity:1" fill="#171717" d="M 951.5,217.5 C 959.641,217.481 962.808,221.481 961,229.5C 960.5,231.333 959.333,232.5 957.5,233C 948.237,234.698 944.737,230.865 947,221.5C 948.397,219.93 949.897,218.596 951.5,217.5 Z"/></g>
<g><path style="opacity:1" fill="#181818" d="M 973.5,221.5 C 972.1,220.9 971.1,219.9 970.5,218.5C 970.833,218.5 971.167,218.5 971.5,218.5C 974.382,218.986 977.048,218.986 979.5,218.5C 982.143,217.021 984.643,217.354 987,219.5C 987.499,224.155 987.666,228.821 987.5,233.5C 986.167,233.5 984.833,233.5 983.5,233.5C 983.665,229.818 983.499,226.152 983,222.5C 981.667,221.167 980.333,221.167 979,222.5C 978.501,226.152 978.335,229.818 978.5,233.5C 977.167,233.5 975.833,233.5 974.5,233.5C 974.763,229.4 974.43,225.4 973.5,221.5 Z"/></g>
<g><path style="opacity:1" fill="#7e7e7e" d="M 1021.5,217.5 C 1022.5,217.5 1023.5,217.5 1024.5,217.5C 1024.5,218.833 1024.5,220.167 1024.5,221.5C 1023.5,221.5 1022.5,221.5 1021.5,221.5C 1022.09,220.849 1022.76,220.182 1023.5,219.5C 1022.76,218.818 1022.09,218.151 1021.5,217.5 Z"/></g>
<g><path style="opacity:1" fill="#171717" d="M 1030.5,217.5 C 1041.12,217.616 1044.12,222.449 1039.5,232C 1029.31,235.811 1025.14,232.311 1027,221.5C 1028.38,220.295 1029.54,218.962 1030.5,217.5 Z"/></g>
<g><path style="opacity:1" fill="#616161" d="M 968.5,218.5 C 967.5,218.5 966.5,218.5 965.5,218.5C 965.5,223.5 965.5,228.5 965.5,233.5C 964.512,228.36 964.179,223.026 964.5,217.5C 966.099,217.232 967.432,217.566 968.5,218.5 Z"/></g>
<g><path style="opacity:1" fill="#040404" d="M 968.5,218.5 C 968.5,223.5 968.5,228.5 968.5,233.5C 967.5,233.5 966.5,233.5 965.5,233.5C 965.5,228.5 965.5,223.5 965.5,218.5C 966.5,218.5 967.5,218.5 968.5,218.5 Z"/></g>
<g><path style="opacity:1" fill="#191919" d="M 1002.5,218.5 C 1004.86,220.557 1005.86,223.224 1005.5,226.5C 1001.77,226.177 998.107,226.511 994.5,227.5C 994.624,228.107 994.957,228.44 995.5,228.5C 995.962,229.88 996.962,230.547 998.5,230.5C 1000.87,229.417 1003.21,229.417 1005.5,230.5C 1004.91,231.799 1003.91,232.632 1002.5,233C 995.511,235.166 991.511,232.666 990.5,225.5C 990.467,222.898 991.467,220.898 993.5,219.5C 996.43,218.701 999.43,218.368 1002.5,218.5 Z"/></g>
<g><path style="opacity:1" fill="#e7e7e7" d="M 914.5,223.5 C 912.265,223.795 910.265,223.461 908.5,222.5C 909.097,221.861 909.93,221.528 911,221.5C 912.699,221.387 913.866,222.053 914.5,223.5 Z"/></g>
<g><path style="opacity:1" fill="#e2e2e2" d="M 951.5,221.5 C 957.067,220.753 958.9,223.087 957,228.5C 955,231.167 953,231.167 951,228.5C 950.297,226.071 950.463,223.738 951.5,221.5 Z"/></g>
<g><path style="opacity:1" fill="#e1e1e1" d="M 1031.5,221.5 C 1037.39,221.213 1039.05,223.879 1036.5,229.5C 1034.83,230.833 1033.17,230.833 1031.5,229.5C 1030.18,226.802 1030.18,224.136 1031.5,221.5 Z"/></g>
<g><path style="opacity:1" fill="#858585" d="M 908.5,222.5 C 910.265,223.461 912.265,223.795 914.5,223.5C 912.307,224.797 909.973,224.797 907.5,223.5C 907.624,222.893 907.957,222.56 908.5,222.5 Z"/></g>
<g><path style="opacity:1" fill="#515151" d="M 968.5,218.5 C 969.167,218.5 969.833,218.5 970.5,218.5C 971.1,219.9 972.1,220.9 973.5,221.5C 972.178,221.33 971.011,221.663 970,222.5C 969.823,226.356 969.323,230.023 968.5,233.5C 968.5,228.5 968.5,223.5 968.5,218.5 Z"/></g>
<g><path style="opacity:1" fill="#9a9a9a" d="M 996.5,221.5 C 996.62,222.586 997.287,223.253 998.5,223.5C 999.713,223.253 1000.38,222.586 1000.5,221.5C 1001.4,222.209 1001.74,223.209 1001.5,224.5C 999.5,224.5 997.5,224.5 995.5,224.5C 995.263,223.209 995.596,222.209 996.5,221.5 Z"/></g>
<g><path style="opacity:1" fill="#f4f4f4" d="M 996.5,221.5 C 997.833,221.5 999.167,221.5 1000.5,221.5C 1000.38,222.586 999.713,223.253 998.5,223.5C 997.287,223.253 996.62,222.586 996.5,221.5 Z"/></g>
<g><path style="opacity:1" fill="#939393" d="M 889.5,221.5 C 890.924,223.515 891.59,225.848 891.5,228.5C 890.076,226.485 889.41,224.152 889.5,221.5 Z"/></g>
<g><path style="opacity:1" fill="#909090" d="M 931.5,219.5 C 929.877,222.215 929.21,225.215 929.5,228.5C 928.371,226.372 928.204,224.039 929,221.5C 929.708,220.619 930.542,219.953 931.5,219.5 Z"/></g>
<g><path style="opacity:1" fill="#5f5f5f" d="M 893.5,221.5 C 894.268,222.263 894.768,223.263 895,224.5C 895.278,223.584 895.778,222.918 896.5,222.5C 896.762,223.978 896.429,225.311 895.5,226.5C 893.783,225.332 893.116,223.665 893.5,221.5 Z"/></g>
<g><path style="opacity:1" fill="#8b8b8b" d="M 918.5,223.5 C 919.434,224.568 919.768,225.901 919.5,227.5C 915.629,227.185 911.962,227.518 908.5,228.5C 907.957,228.44 907.624,228.107 907.5,227.5C 911.107,226.511 914.774,226.177 918.5,226.5C 918.5,225.5 918.5,224.5 918.5,223.5 Z"/></g>
<g><path style="opacity:1" fill="#7a7a7a" d="M 1005.5,226.5 C 1002.17,227.167 998.833,227.833 995.5,228.5C 994.957,228.44 994.624,228.107 994.5,227.5C 998.107,226.511 1001.77,226.177 1005.5,226.5 Z"/></g>
<g><path style="opacity:1" fill="#848484" d="M 899.5,226.5 C 899.59,229.152 898.924,231.485 897.5,233.5C 897.41,230.848 898.076,228.515 899.5,226.5 Z"/></g>
<g><path style="opacity:1" fill="#454545" d="M 921.5,248.5 C 918.167,248.5 914.833,248.5 911.5,248.5C 911.5,255.167 911.5,261.833 911.5,268.5C 910.509,261.687 910.175,254.687 910.5,247.5C 914.371,247.185 918.038,247.518 921.5,248.5 Z"/></g>
<g><path style="opacity:1" fill="#131313" d="M 921.5,248.5 C 926.183,250.21 927.683,253.543 926,258.5C 923.016,261.1 919.516,262.1 915.5,261.5C 915.5,263.833 915.5,266.167 915.5,268.5C 914.167,268.5 912.833,268.5 911.5,268.5C 911.5,261.833 911.5,255.167 911.5,248.5C 914.833,248.5 918.167,248.5 921.5,248.5 Z"/></g>
<g><path style="opacity:1" fill="#2f2f2f" d="M 930.5,246.5 C 933.5,246.167 934.833,247.5 934.5,250.5C 932.833,250.5 931.167,250.5 929.5,250.5C 929.433,249.041 929.766,247.708 930.5,246.5 Z"/></g>
<g><path style="opacity:1" fill="#ededed" d="M 915.5,251.5 C 918.885,250.79 921.219,251.956 922.5,255C 921.219,258.044 918.885,259.21 915.5,258.5C 915.5,256.167 915.5,253.833 915.5,251.5 Z"/></g>
<g><path style="opacity:1" fill="#1a1a1a" d="M 970.5,261.5 C 966.833,261.5 963.167,261.5 959.5,261.5C 959.263,262.791 959.596,263.791 960.5,264.5C 963.327,265.368 966.327,265.368 969.5,264.5C 969.64,266.124 968.973,267.29 967.5,268C 957.722,270.222 953.889,266.389 956,256.5C 960.588,251.257 965.255,251.257 970,256.5C 970.494,258.134 970.66,259.801 970.5,261.5 Z"/></g>
<g><path style="opacity:1" fill="#191919" d="M 976.5,252.5 C 987.4,252.135 990.733,256.968 986.5,267C 982.481,269.16 978.647,268.994 975,266.5C 974.015,264.634 973.515,262.634 973.5,260.5C 973.583,257.442 974.583,254.775 976.5,252.5 Z"/></g>
<g><path style="opacity:1" fill="#707070" d="M 929.5,252.5 C 931.167,252.5 932.833,252.5 934.5,252.5C 934.5,258.167 934.5,263.833 934.5,269.5C 932.833,269.5 931.167,269.5 929.5,269.5C 929.5,263.833 929.5,258.167 929.5,252.5 Z"/></g>
<g><path style="opacity:1" fill="#000000" d="M 930.5,253.5 C 931.5,253.5 932.5,253.5 933.5,253.5C 933.5,258.5 933.5,263.5 933.5,268.5C 932.5,268.5 931.5,268.5 930.5,268.5C 930.5,263.5 930.5,258.5 930.5,253.5 Z"/></g>
<g><path style="opacity:1" fill="#181818" d="M 940.5,252.5 C 944.481,253.021 948.481,253.354 952.5,253.5C 952.666,259.509 952.499,265.509 952,271.5C 950.137,273.949 947.637,274.949 944.5,274.5C 941.425,274.984 939.091,273.984 937.5,271.5C 940.778,270.979 944.111,270.813 947.5,271C 948.747,269.506 948.747,268.006 947.5,266.5C 940.809,270.013 937.476,267.846 937.5,260C 937.11,256.876 938.11,254.376 940.5,252.5 Z"/></g>
<g><path style="opacity:1" fill="#0f0f0f" d="M 1005.5,255.5 C 1005.5,259.833 1005.5,264.167 1005.5,268.5C 1004.5,268.5 1003.5,268.5 1002.5,268.5C 1002.81,264.958 1002.48,261.625 1001.5,258.5C 1000.07,256.353 998.235,256.02 996,257.5C 995.501,261.152 995.335,264.818 995.5,268.5C 994.167,268.5 992.833,268.5 991.5,268.5C 991.5,263.5 991.5,258.5 991.5,253.5C 993.262,253.357 994.929,253.691 996.5,254.5C 999.865,251.76 1002.86,252.093 1005.5,255.5 Z"/></g>
<g><path style="opacity:1" fill="#e0e0e0" d="M 978.5,256.5 C 984.643,257.026 985.976,259.86 982.5,265C 980.888,265.72 979.388,265.554 978,264.5C 977.278,261.739 977.445,259.073 978.5,256.5 Z"/></g>
<g><path style="opacity:1" fill="#dbdbdb" d="M 942.5,256.5 C 945.916,255.866 947.916,257.2 948.5,260.5C 947.984,265.498 945.818,266.498 942,263.5C 941.297,261.071 941.463,258.738 942.5,256.5 Z"/></g>
<g><path style="opacity:1" fill="#b4b4b4" d="M 960.5,256.5 C 962.977,256.051 964.977,256.717 966.5,258.5C 964.167,259.833 961.833,259.833 959.5,258.5C 959.863,257.817 960.196,257.15 960.5,256.5 Z"/></g>
<g><path style="opacity:1" fill="#6c6c6c" d="M 1005.5,255.5 C 1006.49,259.97 1006.82,264.637 1006.5,269.5C 1004.83,269.5 1003.17,269.5 1001.5,269.5C 1001.5,265.833 1001.5,262.167 1001.5,258.5C 1002.48,261.625 1002.81,264.958 1002.5,268.5C 1003.5,268.5 1004.5,268.5 1005.5,268.5C 1005.5,264.167 1005.5,259.833 1005.5,255.5 Z"/></g>
<g><path style="opacity:1" fill="#656565" d="M 970.5,261.5 C 966.881,261.881 963.548,262.881 960.5,264.5C 959.596,263.791 959.263,262.791 959.5,261.5C 963.167,261.5 966.833,261.5 970.5,261.5 Z"/></g>
<g><path style="opacity:1" fill="#858584" d="M 726.5,257.5 C 726.918,258.222 727.584,258.722 728.5,259C 727.809,263.913 727.809,268.913 728.5,274C 728.765,279.231 727.765,284.064 725.5,288.5C 725.172,277.986 725.506,267.653 726.5,257.5 Z"/></g>
<g><path style="opacity:1" fill="#9c9d9b" d="M 726.5,326.5 C 727.492,326.328 728.158,326.662 728.5,327.5C 726.577,331.029 725.911,335.029 726.5,339.5C 726.5,353.167 726.5,366.833 726.5,380.5C 726.5,384.167 726.5,387.833 726.5,391.5C 726.167,391.5 725.833,391.5 725.5,391.5C 725.169,369.66 725.503,347.994 726.5,326.5 Z"/></g>
<g><path style="opacity:1" fill="#505050" d="M 728.5,327.5 C 729.497,348.66 729.831,369.993 729.5,391.5C 728.5,391.5 727.5,391.5 726.5,391.5C 726.5,387.833 726.5,384.167 726.5,380.5C 727.29,379.391 727.79,378.058 728,376.5C 728.667,365.5 728.667,354.5 728,343.5C 727.79,341.942 727.29,340.609 726.5,339.5C 725.911,335.029 726.577,331.029 728.5,327.5 Z"/></g>
<g><path style="opacity:1" fill="#767676" d="M 726.5,339.5 C 727.29,340.609 727.79,341.942 728,343.5C 728.667,354.5 728.667,365.5 728,376.5C 727.79,378.058 727.29,379.391 726.5,380.5C 726.5,366.833 726.5,353.167 726.5,339.5 Z"/></g>
<g><path style="opacity:1" fill="#5f5f5e" d="M 1189.5,347.5 C 1191.12,347.36 1192.29,348.027 1193,349.5C 1193.67,386.5 1193.67,423.5 1193,460.5C 1192.62,461.056 1192.12,461.389 1191.5,461.5C 1190.83,461.5 1190.17,461.5 1189.5,461.5C 1189.5,460.833 1189.5,460.167 1189.5,459.5C 1190.5,459.5 1191.5,459.5 1192.5,459.5C 1192.67,451.16 1192.5,442.827 1192,434.5C 1191.67,435.5 1191.33,436.5 1191,437.5C 1190.77,436.263 1190.27,435.263 1189.5,434.5C 1189.17,412.823 1189.5,391.156 1190.5,369.5C 1191.32,372.107 1191.82,374.774 1192,377.5C 1192.5,368.506 1192.67,359.506 1192.5,350.5C 1191.5,350.5 1190.5,350.5 1189.5,350.5C 1189.5,349.5 1189.5,348.5 1189.5,347.5 Z"/></g>
<g><path style="opacity:1" fill="#584a6e" d="M 962.5,431.5 C 960.941,433.624 958.941,435.291 956.5,436.5C 935.509,437.253 914.509,437.587 893.5,437.5C 893.5,436.833 893.167,436.5 892.5,436.5C 886.856,428.673 881.356,420.673 876,412.5C 871.238,403.968 866.238,395.635 861,387.5C 860.333,386.5 860.333,385.5 861,384.5C 894.749,400.29 928.582,415.957 962.5,431.5 Z"/></g>
<g><path style="opacity:1" fill="#5e5e92" d="M 928.5,518.5 C 921.974,518.697 915.641,519.364 909.5,520.5C 908.833,520.5 908.167,520.5 907.5,520.5C 898.942,520.786 890.609,521.786 882.5,523.5C 879.102,523.82 875.768,523.487 872.5,522.5C 882.173,509.503 892.173,496.836 902.5,484.5C 903.908,483.939 905.408,483.605 907,483.5C 923.971,487.22 941.138,488.387 958.5,487C 974.846,481.828 981.68,470.661 979,453.5C 974.436,444.116 966.936,438.45 956.5,436.5C 958.941,435.291 960.941,433.624 962.5,431.5C 967.566,429.818 972.566,427.985 977.5,426C 983.769,424.743 990.102,424.243 996.5,424.5C 997.119,411.033 1003.79,401.867 1016.5,397C 1031.91,394.434 1043.41,399.934 1051,413.5C 1055.27,426.783 1052.11,437.95 1041.5,447C 1036.39,450.535 1030.73,452.369 1024.5,452.5C 1024.46,466.442 1019.63,478.442 1010,488.5C 997.997,500.153 983.83,507.986 967.5,512C 954.512,514.496 941.512,516.663 928.5,518.5 Z"/></g>
<g><path style="opacity:1" fill="#f79c9a" d="M 1071.5,396.5 C 1064.24,398.019 1056.9,399.019 1049.5,399.5C 1055.75,397.615 1062.25,396.282 1069,395.5C 1070.89,395.37 1071.72,395.704 1071.5,396.5 Z"/></g>
<g><path style="opacity:1" fill="#f47876" d="M 1071.5,396.5 C 1066.41,403.688 1061.07,410.688 1055.5,417.5C 1054.02,410.183 1050.02,404.683 1043.5,401C 1045.25,399.681 1047.25,399.181 1049.5,399.5C 1056.9,399.019 1064.24,398.019 1071.5,396.5 Z"/></g>
<g><path style="opacity:1" fill="#373738" d="M 1026.5,409.5 C 1031.18,411.248 1032.68,414.581 1031,419.5C 1028.7,421.93 1025.86,422.93 1022.5,422.5C 1017.19,418.46 1017.19,414.294 1022.5,410C 1023.79,409.51 1025.13,409.343 1026.5,409.5 Z"/></g>
<g><path style="opacity:1" fill="#bfbeca" d="M 1026.5,409.5 C 1025.13,409.343 1023.79,409.51 1022.5,410C 1017.19,414.294 1017.19,418.46 1022.5,422.5C 1023.95,423.302 1025.62,423.802 1027.5,424C 1018.89,425.051 1015.39,421.218 1017,412.5C 1019.46,408.69 1022.62,407.69 1026.5,409.5 Z"/></g>
<g><path style="opacity:1" fill="#e3d7f2" d="M 892.5,436.5 C 893.167,436.5 893.5,436.833 893.5,437.5C 882.679,438.495 871.679,438.828 860.5,438.5C 871.167,437.833 881.833,437.167 892.5,436.5 Z"/></g>
<g><path style="opacity:1" fill="#a680d8" d="M 956.5,436.5 C 966.936,438.45 974.436,444.116 979,453.5C 981.68,470.661 974.846,481.828 958.5,487C 941.138,488.387 923.971,487.22 907,483.5C 905.408,483.605 903.908,483.939 902.5,484.5C 902.586,483.504 902.252,482.671 901.5,482C 892.494,479.335 884.161,475.335 876.5,470C 867.604,457.937 856.938,447.77 844.5,439.5C 849.792,438.505 855.125,438.172 860.5,438.5C 871.679,438.828 882.679,438.495 893.5,437.5C 914.509,437.587 935.509,437.253 956.5,436.5 Z"/></g>
<g><path style="opacity:1" fill="#9b9c9a" d="M 728.5,416.5 C 726.742,421.272 726.075,426.272 726.5,431.5C 726.5,445.167 726.5,458.833 726.5,472.5C 726.81,475.713 726.477,478.713 725.5,481.5C 725.5,459.833 725.5,438.167 725.5,416.5C 726.5,416.5 727.5,416.5 728.5,416.5 Z"/></g>
<g><path style="opacity:1" fill="#353534" d="M 1189.5,434.5 C 1190.27,435.263 1190.77,436.263 1191,437.5C 1191.33,436.5 1191.67,435.5 1192,434.5C 1192.5,442.827 1192.67,451.16 1192.5,459.5C 1191.5,459.5 1190.5,459.5 1189.5,459.5C 1189.5,451.167 1189.5,442.833 1189.5,434.5 Z"/></g>
<g><path style="opacity:1" fill="#7b7b7b" d="M 726.5,431.5 C 727.268,432.263 727.768,433.263 728,434.5C 728.667,445.833 728.667,457.167 728,468.5C 727.79,470.058 727.29,471.391 726.5,472.5C 726.5,458.833 726.5,445.167 726.5,431.5 Z"/></g>
<g><path style="opacity:1" fill="#d5d2ca" d="M 1189.5,461.5 C 1190.17,461.5 1190.83,461.5 1191.5,461.5C 1190.83,618.931 1190.17,776.264 1189.5,933.5C 1189.5,776.167 1189.5,618.833 1189.5,461.5 Z"/></g>
<g><path style="opacity:1" fill="#c1c1d4" d="M 928.5,518.5 C 922.416,520.177 916.082,520.844 909.5,520.5C 915.641,519.364 921.974,518.697 928.5,518.5 Z"/></g>
<g><path style="opacity:1" fill="#d1d1e0" d="M 907.5,520.5 C 907.389,521.117 907.056,521.617 906.5,522C 898.5,522.567 890.5,523.067 882.5,523.5C 890.609,521.786 898.942,520.786 907.5,520.5 Z"/></g>
<g><path style="opacity:1" fill="#5a5b60" d="M 1188.5,170.5 C 1188.83,170.5 1189.17,170.5 1189.5,170.5C 1189.5,229.5 1189.5,288.5 1189.5,347.5C 1189.5,348.5 1189.5,349.5 1189.5,350.5C 1190.5,350.5 1191.5,350.5 1192.5,350.5C 1192.67,359.506 1192.5,368.506 1192,377.5C 1191.82,374.774 1191.32,372.107 1190.5,369.5C 1189.5,391.156 1189.17,412.823 1189.5,434.5C 1189.5,442.833 1189.5,451.167 1189.5,459.5C 1189.5,460.167 1189.5,460.833 1189.5,461.5C 1189.5,618.833 1189.5,776.167 1189.5,933.5C 1190.23,957.837 1181.9,978.337 1164.5,995C 1160.95,998.273 1156.95,1000.77 1152.5,1002.5C 1164.96,994.537 1174.46,983.87 1181,970.5C 1185.6,956.57 1187.94,942.237 1188,927.5C 1188.5,675.167 1188.67,422.834 1188.5,170.5 Z"/></g>
<g><path style="opacity:1" fill="#0e1115" d="M 743.5,104.5 C 739.276,114.398 736.776,124.732 736,135.5C 735.5,393.5 735.333,651.5 735.5,909.5C 734.5,663.334 734.167,417.001 734.5,170.5C 734.5,167.167 734.5,163.833 734.5,160.5C 733.167,160.5 731.833,160.5 730.5,160.5C 730.509,148.394 731.509,136.394 733.5,124.5C 734.117,124.389 734.617,124.056 735,123.5C 736.19,119.058 737.524,114.725 739,110.5C 740.594,108.474 742.094,106.474 743.5,104.5 Z"/></g>
<g><path style="opacity:1" fill="#505357" d="M 1112.5,636.5 C 1009.48,636.175 906.478,636.509 803.5,637.5C 803.918,636.778 804.584,636.278 805.5,636C 908.001,635.167 1010.33,635.334 1112.5,636.5 Z"/></g>
<g><path style="opacity:1" fill="#292d32" d="M 1112.5,636.5 C 1115.06,637.543 1117.22,639.21 1119,641.5C 1119.67,659.167 1119.67,676.833 1119,694.5C 1117.75,697.171 1115.92,699.337 1113.5,701C 1010.5,701.667 907.5,701.667 804.5,701C 802.383,699.269 800.883,697.102 800,694.5C 799.333,676.833 799.333,659.167 800,641.5C 800.66,639.676 801.827,638.343 803.5,637.5C 906.478,636.509 1009.48,636.175 1112.5,636.5 Z"/></g>
<g><path style="opacity:1" fill="#9a9b9e" d="M 975.5,660.5 C 976.833,660.5 978.167,660.5 979.5,660.5C 979.5,661.5 979.5,662.5 979.5,663.5C 978.167,663.5 976.833,663.5 975.5,663.5C 975.5,662.5 975.5,661.5 975.5,660.5 Z"/></g>
<g><path style="opacity:1" fill="#babbbd" d="M 943.5,661.5 C 942.5,664.167 941.5,664.167 940.5,661.5C 941.5,660.167 942.5,660.167 943.5,661.5 Z"/></g>
<g><path style="opacity:1" fill="#4a4d52" d="M 940.5,661.5 C 941.5,664.167 942.5,664.167 943.5,661.5C 944.167,665.5 944.833,669.5 945.5,673.5C 947.742,674.648 950.076,675.648 952.5,676.5C 951.078,677.547 949.578,677.547 948,676.5C 946.97,676.836 946.47,677.503 946.5,678.5C 944.639,677.158 942.639,676.158 940.5,675.5C 939.691,673.708 939.191,671.708 939,669.5C 938.79,671.058 938.29,672.391 937.5,673.5C 938.146,668.351 935.813,666.018 930.5,666.5C 930.5,665.5 930.5,664.5 930.5,663.5C 932.57,663.449 934.403,664.115 936,665.5C 937.726,664.352 937.559,663.185 935.5,662C 933.527,661.505 931.527,661.338 929.5,661.5C 931.684,660.734 934.018,660.067 936.5,659.5C 937.425,660.641 938.259,660.641 939,659.5C 939.278,660.416 939.778,661.082 940.5,661.5 Z"/></g>
<g><path style="opacity:1" fill="#e3e3e4" d="M 940.5,675.5 C 940.5,672.167 940.5,668.833 940.5,665.5C 941.5,665.5 942.5,665.5 943.5,665.5C 943.5,668.833 943.5,672.167 943.5,675.5C 942.5,675.5 941.5,675.5 940.5,675.5 Z"/></g>
<g><path style="opacity:1" fill="#909293" d="M 947.5,665.5 C 950.287,664.523 953.287,664.19 956.5,664.5C 956.818,669.032 956.485,673.366 955.5,677.5C 955.5,673.5 955.5,669.5 955.5,665.5C 952.833,665.5 950.167,665.5 947.5,665.5 Z"/></g>
<g><path style="opacity:1" fill="#d8d9da" d="M 958.5,664.5 C 961.579,664.26 964.579,664.593 967.5,665.5C 968.487,668.768 968.82,672.102 968.5,675.5C 967.5,675.5 966.5,675.5 965.5,675.5C 965.5,672.833 965.5,670.167 965.5,667.5C 964.167,667.5 962.833,667.5 961.5,667.5C 961.5,670.167 961.5,672.833 961.5,675.5C 960.5,675.5 959.5,675.5 958.5,675.5C 958.5,671.833 958.5,668.167 958.5,664.5 Z"/></g>
<g><path style="opacity:1" fill="#909294" d="M 978.5,675.5 C 977.833,662.167 977.167,662.167 976.5,675.5C 975.518,672.038 975.185,668.371 975.5,664.5C 976.833,664.5 978.167,664.5 979.5,664.5C 979.815,668.371 979.482,672.038 978.5,675.5 Z"/></g>
<g><path style="opacity:1" fill="#f3f3f4" d="M 978.5,675.5 C 977.833,675.5 977.167,675.5 976.5,675.5C 977.167,662.167 977.833,662.167 978.5,675.5 Z"/></g>
<g><path style="opacity:1" fill="#e1e2e2" d="M 947.5,665.5 C 950.167,665.5 952.833,665.5 955.5,665.5C 955.5,669.5 955.5,673.5 955.5,677.5C 952.854,679.78 949.854,680.113 946.5,678.5C 946.47,677.503 946.97,676.836 948,676.5C 949.578,677.547 951.078,677.547 952.5,676.5C 950.076,675.648 947.742,674.648 945.5,673.5C 945.337,671.143 945.503,668.81 946,666.5C 946.383,665.944 946.883,665.611 947.5,665.5 Z"/></g>
<g><path style="opacity:1" fill="#dddede" d="M 981.5,664.5 C 984.513,665.132 987.513,665.466 990.5,665.5C 991.417,668.758 991.751,672.091 991.5,675.5C 990.5,675.5 989.5,675.5 988.5,675.5C 988.5,672.833 988.5,670.167 988.5,667.5C 987.178,667.33 986.011,667.663 985,668.5C 984.503,670.81 984.337,673.143 984.5,675.5C 983.5,675.5 982.5,675.5 981.5,675.5C 981.5,671.833 981.5,668.167 981.5,664.5 Z"/></g>
<g><path style="opacity:1" fill="#3e4146" d="M 948.5,667.5 C 949.833,667.5 951.167,667.5 952.5,667.5C 952.5,669.167 952.5,670.833 952.5,672.5C 951.167,672.5 949.833,672.5 948.5,672.5C 948.5,670.833 948.5,669.167 948.5,667.5 Z"/></g>
<g><path style="opacity:1" fill="#dbdcdc" d="M 929.5,661.5 C 931.527,661.338 933.527,661.505 935.5,662C 937.559,663.185 937.726,664.352 936,665.5C 934.403,664.115 932.57,663.449 930.5,663.5C 930.5,664.5 930.5,665.5 930.5,666.5C 935.813,666.018 938.146,668.351 937.5,673.5C 934.863,675.427 931.863,675.927 928.5,675C 926.963,673.89 926.297,672.39 926.5,670.5C 928.675,670.682 930.675,671.349 932.5,672.5C 933.167,672.167 933.833,671.833 934.5,671.5C 932.434,670.094 930.268,668.76 928,667.5C 927.059,665.011 927.559,663.011 929.5,661.5 Z"/></g>
<g><path style="opacity:1" fill="#727377" d="M 730.5,170.5 C 730.333,422.834 730.5,675.167 731,927.5C 731.136,939.288 732.302,950.955 734.5,962.5C 732.989,960.524 732.156,958.191 732,955.5C 730.907,948.179 729.907,940.846 729,933.5C 728.833,783.832 728.333,634.166 727.5,484.5C 726.081,483.995 725.415,482.995 725.5,481.5C 726.477,478.713 726.81,475.713 726.5,472.5C 727.29,471.391 727.79,470.058 728,468.5C 728.667,457.167 728.667,445.833 728,434.5C 727.768,433.263 727.268,432.263 726.5,431.5C 726.075,426.272 726.742,421.272 728.5,416.5C 728.831,409.137 728.497,401.803 727.5,394.5C 726.081,393.995 725.415,392.995 725.5,391.5C 725.833,391.5 726.167,391.5 726.5,391.5C 727.5,391.5 728.5,391.5 729.5,391.5C 729.831,369.993 729.497,348.66 728.5,327.5C 728.158,326.662 727.492,326.328 726.5,326.5C 727.789,320.741 728.456,314.741 728.5,308.5C 728.167,302.833 727.833,297.167 727.5,291.5C 726.081,290.995 725.415,289.995 725.5,288.5C 727.765,284.064 728.765,279.231 728.5,274C 727.809,268.913 727.809,263.913 728.5,259C 727.584,258.722 726.918,258.222 726.5,257.5C 727.167,257.5 727.833,257.5 728.5,257.5C 729.167,228.5 729.833,199.5 730.5,170.5 Z"/></g>
<g><path style="opacity:1" fill="#424242" d="M 881.5,728.5 C 889.053,727.882 891.386,731.049 888.5,738C 886.19,738.497 883.857,738.663 881.5,738.5C 881.5,735.167 881.5,731.833 881.5,728.5 Z"/></g>
<g><path style="opacity:1" fill="#494949" d="M 1034.5,735.5 C 1033.83,735.5 1033.17,735.5 1032.5,735.5C 1032.7,733.956 1033.37,732.622 1034.5,731.5C 1033.17,731.167 1031.83,730.833 1030.5,730.5C 1031.69,728.616 1033.36,728.116 1035.5,729C 1036.86,731.414 1036.52,733.581 1034.5,735.5 Z"/></g>
<g><path style="opacity:1" fill="#ededed" d="M 883.5,730.5 C 887.473,731.075 888.473,733.242 886.5,737C 885.552,737.483 884.552,737.649 883.5,737.5C 883.5,735.167 883.5,732.833 883.5,730.5 Z"/></g>
<g><path style="opacity:1" fill="#bebebe" d="M 911.5,730.5 C 911.5,731.5 911.5,732.5 911.5,733.5C 910.167,733.5 908.833,733.5 907.5,733.5C 907.784,735.415 907.451,737.081 906.5,738.5C 906.702,736.05 906.369,733.717 905.5,731.5C 907.024,730.826 908.358,729.826 909.5,728.5C 910.182,729.243 910.849,729.909 911.5,730.5 Z"/></g>
<g><path style="opacity:1" fill="#5d5d5d" d="M 934.5,732.5 C 934.5,734.5 934.5,736.5 934.5,738.5C 932.833,738.5 931.167,738.5 929.5,738.5C 928.427,737.749 928.26,736.749 929,735.5C 930.205,734.929 931.372,734.262 932.5,733.5C 931.603,733.331 930.603,732.998 929.5,732.5C 931.299,731.212 932.965,731.212 934.5,732.5 Z"/></g>
<g><path style="opacity:1" fill="#515151" d="M 944.5,737.5 C 944.5,735.833 944.5,734.167 944.5,732.5C 948.116,730.556 950.116,731.556 950.5,735.5C 949.022,735.238 947.689,735.571 946.5,736.5C 947.651,737.731 948.817,737.731 950,736.5C 950.617,737.449 950.451,738.282 949.5,739C 947.326,739.877 945.659,739.377 944.5,737.5 Z"/></g>
<g><path style="opacity:1" fill="#404040" d="M 964.5,731.5 C 970.235,730.821 971.902,733.155 969.5,738.5C 968.548,736.955 968.215,735.288 968.5,733.5C 967.5,733.5 966.5,733.5 965.5,733.5C 965.5,735.167 965.5,736.833 965.5,738.5C 964.532,736.393 964.198,734.059 964.5,731.5 Z"/></g>
<g><path style="opacity:1" fill="#323232" d="M 1025.5,729.5 C 1027.12,729.787 1028.12,730.787 1028.5,732.5C 1027.23,734.371 1027.23,736.204 1028.5,738C 1027.55,738.483 1026.55,738.649 1025.5,738.5C 1025.5,735.5 1025.5,732.5 1025.5,729.5 Z"/></g>
<g><path style="opacity:1" fill="#636363" d="M 905.5,731.5 C 906.369,733.717 906.702,736.05 906.5,738.5C 905.001,737.322 904.001,735.655 903.5,733.5C 902.988,735.851 901.988,737.851 900.5,739.5C 899.52,736.914 899.187,734.247 899.5,731.5C 901.5,731.5 903.5,731.5 905.5,731.5 Z"/></g>
<g><path style="opacity:1" fill="#4b4b4b" d="M 920.5,729.5 C 922.575,730.62 924.741,731.62 927,732.5C 927.545,741.424 926.379,741.758 923.5,733.5C 922.833,735.167 922.167,736.833 921.5,738.5C 920.516,735.572 920.183,732.572 920.5,729.5 Z"/></g>
<g><path style="opacity:1" fill="#939393" d="M 964.5,731.5 C 964.198,734.059 964.532,736.393 965.5,738.5C 965.44,739.043 965.107,739.376 964.5,739.5C 963.2,736.691 963.2,734.024 964.5,731.5 Z"/></g>
<g><path style="opacity:1" fill="#535353" d="M 1016.5,731.5 C 1022.88,730.214 1024.88,732.547 1022.5,738.5C 1021.55,736.955 1021.21,735.288 1021.5,733.5C 1020.5,733.5 1019.5,733.5 1018.5,733.5C 1018.8,735.604 1018.47,737.604 1017.5,739.5C 1016.52,736.914 1016.19,734.247 1016.5,731.5 Z"/></g>
<g><path style="opacity:1" fill="#363636" d="M 911.5,733.5 C 911.5,732.5 911.5,731.5 911.5,730.5C 912.95,729.342 913.95,729.842 914.5,732C 913.167,734 913.167,736 914.5,738C 913.552,738.483 912.552,738.649 911.5,738.5C 911.5,736.833 911.5,735.167 911.5,733.5 Z"/></g>
<g><path style="opacity:1" fill="#9d9d9d" d="M 936.5,731.5 C 936.5,732.167 936.5,732.833 936.5,733.5C 935.539,735.265 935.205,737.265 935.5,739.5C 933.265,739.795 931.265,739.461 929.5,738.5C 931.167,738.5 932.833,738.5 934.5,738.5C 934.5,736.5 934.5,734.5 934.5,732.5C 935.167,732.167 935.833,731.833 936.5,731.5 Z"/></g>
<g><path style="opacity:1" fill="#a2a2a2" d="M 941.5,731.5 C 941.56,730.957 941.893,730.624 942.5,730.5C 943.182,731.243 943.849,731.909 944.5,732.5C 944.5,734.167 944.5,735.833 944.5,737.5C 943.833,736.167 943.167,734.833 942.5,733.5C 942.672,732.508 942.338,731.842 941.5,731.5 Z"/></g>
<g><path style="opacity:1" fill="#696969" d="M 956.5,731.5 C 958.467,731.261 960.301,731.594 962,732.5C 962.497,734.81 962.663,737.143 962.5,739.5C 960.208,739.756 958.041,739.423 956,738.5C 955.411,735.21 956.911,733.71 960.5,734C 959.675,732.312 958.675,732.145 957.5,733.5C 956.702,733.043 956.369,732.376 956.5,731.5 Z"/></g>
<g><path style="opacity:1" fill="#6f6f6f" d="M 976.5,731.5 C 978.467,731.261 980.301,731.594 982,732.5C 982.497,734.81 982.663,737.143 982.5,739.5C 980.208,739.756 978.041,739.423 976,738.5C 975.205,735.617 976.371,734.117 979.5,734C 977.881,733.764 976.881,732.931 976.5,731.5 Z"/></g>
<g><path style="opacity:1" fill="#3f3f3f" d="M 992.5,731.5 C 994.467,731.261 996.301,731.594 998,732.5C 998.688,733.332 998.521,733.998 997.5,734.5C 996.264,733.754 994.93,733.421 993.5,733.5C 993.534,737.176 995.201,738.343 998.5,737C 992.273,739.942 990.273,738.109 992.5,731.5 Z"/></g>
<g><path style="opacity:1" fill="#404040" d="M 936.5,731.5 C 937.85,732.483 938.85,733.816 939.5,735.5C 940.172,734.051 940.839,732.718 941.5,731.5C 942.338,731.842 942.672,732.508 942.5,733.5C 940.5,740.167 938.5,740.167 936.5,733.5C 936.5,732.833 936.5,732.167 936.5,731.5 Z"/></g>
<g><path style="opacity:1" fill="#4a4a4a" d="M 984.5,731.5 C 986.288,731.215 987.955,731.548 989.5,732.5C 988.311,733.429 986.978,733.762 985.5,733.5C 985.5,734.833 985.5,736.167 985.5,737.5C 987.226,737.185 988.893,737.019 990.5,737C 987.068,740.557 984.734,739.891 983.5,735C 983.648,733.744 983.982,732.577 984.5,731.5 Z"/></g>
<g><path style="opacity:1" fill="#484848" d="M 1000.5,731.5 C 1006.16,730.679 1007.82,732.846 1005.5,738C 999.731,739.178 998.064,737.011 1000.5,731.5 Z"/></g>
<g><path style="opacity:1" fill="#dddddd" d="M 1001.5,733.5 C 1002.5,733.5 1003.5,733.5 1004.5,733.5C 1004.76,734.978 1004.43,736.311 1003.5,737.5C 1001.89,736.68 1001.22,735.346 1001.5,733.5 Z"/></g>
<g><path style="opacity:1" fill="#464646" d="M 892.5,731.5 C 898.488,731.664 899.821,734.164 896.5,739C 891.632,738.711 890.299,736.211 892.5,731.5 Z"/></g>
<g><path style="opacity:1" fill="#cdcdcd" d="M 893.5,733.5 C 894.5,733.5 895.5,733.5 896.5,733.5C 896.5,734.833 896.5,736.167 896.5,737.5C 895.5,737.5 894.5,737.5 893.5,737.5C 893.5,736.167 893.5,734.833 893.5,733.5 Z"/></g>
<g><path style="opacity:1" fill="#363636" d="M 1014.5,731.5 C 1014.5,733.833 1014.5,736.167 1014.5,738.5C 1012.83,738.5 1011.17,738.5 1009.5,738.5C 1008.2,736.307 1008.2,733.973 1009.5,731.5C 1011.16,739.172 1012.82,739.172 1014.5,731.5 Z"/></g>
<g><path style="opacity:1" fill="#9d9d9d" d="M 1014.5,731.5 C 1015.47,733.948 1015.81,736.615 1015.5,739.5C 1013.26,739.795 1011.26,739.461 1009.5,738.5C 1011.17,738.5 1012.83,738.5 1014.5,738.5C 1014.5,736.167 1014.5,733.833 1014.5,731.5 Z"/></g>
<g><path style="opacity:1" fill="#a2a2a2" d="M 1032.5,735.5 C 1033.17,735.5 1033.83,735.5 1034.5,735.5C 1033.83,740.833 1033.17,740.833 1032.5,735.5 Z"/></g>
<g><path style="opacity:1" fill="#2a2e33" d="M 805.5,749.5 C 907.834,749.333 1010.17,749.5 1112.5,750C 1114.96,751.458 1117.13,753.291 1119,755.5C 1119.67,773.167 1119.67,790.833 1119,808.5C 1118.21,811.583 1116.38,813.749 1113.5,815C 1010.5,815.667 907.5,815.667 804.5,815C 802.19,813.363 800.69,811.196 800,808.5C 799.333,790.833 799.333,773.167 800,755.5C 801.36,752.977 803.193,750.977 805.5,749.5 Z"/></g>
<g><path style="opacity:1" fill="#d1d2d3" d="M 872.5,775.5 C 875.93,775.107 879.096,775.773 882,777.5C 882.483,778.448 882.649,779.448 882.5,780.5C 879.664,779.224 876.664,778.558 873.5,778.5C 873.232,781.119 873.565,783.619 874.5,786C 877.332,786.326 879.999,785.826 882.5,784.5C 882.863,786.911 881.863,788.411 879.5,789C 869.216,788.85 866.883,784.35 872.5,775.5 Z"/></g>
<g><path style="opacity:1" fill="#e7e8e8" d="M 922.5,787.5 C 921.545,789.71 920.045,790.043 918,788.5C 917.782,785.574 917.282,782.74 916.5,780C 917.056,779.617 917.389,779.117 917.5,778.5C 917.821,776.952 918.821,776.285 920.5,776.5C 920.36,778.124 921.027,779.29 922.5,780C 921.342,781.009 920.675,782.342 920.5,784C 920.608,785.681 921.275,786.848 922.5,787.5 Z"/></g>
<g><path style="opacity:1" fill="#f1f1f1" d="M 1047.5,778.5 C 1047.33,781.694 1047.66,785.027 1048.5,788.5C 1047.19,789.626 1045.86,789.626 1044.5,788.5C 1044.78,785.552 1044.44,782.719 1043.5,780C 1044.32,777.628 1045.65,777.128 1047.5,778.5 Z"/></g>
<g><path style="opacity:1" fill="#dcdcdd" d="M 961.5,779.5 C 962.117,779.611 962.617,779.944 963,780.5C 963.498,783.482 963.665,786.482 963.5,789.5C 962.5,789.5 961.5,789.5 960.5,789.5C 960.663,787.143 960.497,784.81 960,782.5C 958.989,781.663 957.822,781.33 956.5,781.5C 956.5,784.167 956.5,786.833 956.5,789.5C 955.5,789.5 954.5,789.5 953.5,789.5C 953.5,786.167 953.5,782.833 953.5,779.5C 956.167,779.5 958.833,779.5 961.5,779.5 Z"/></g>
<g><path style="opacity:1" fill="#8d8f91" d="M 1047.5,778.5 C 1045.65,777.128 1044.32,777.628 1043.5,780C 1044.44,782.719 1044.78,785.552 1044.5,788.5C 1043.7,785.829 1043.04,782.996 1042.5,780C 1042.69,778.118 1043.69,776.952 1045.5,776.5C 1046.71,776.747 1047.38,777.414 1047.5,778.5 Z"/></g>
<g><path style="opacity:1" fill="#6a6d71" d="M 893.5,780.5 C 892.659,782.379 892.325,784.379 892.5,786.5C 891.566,785.432 891.232,784.099 891.5,782.5C 890.5,782.5 889.5,782.5 888.5,782.5C 889.398,781.842 890.398,781.176 891.5,780.5C 889.604,779.534 887.604,779.201 885.5,779.5C 885.5,782.833 885.5,786.167 885.5,789.5C 884.518,786.038 884.185,782.371 884.5,778.5C 887.855,778.091 890.855,778.758 893.5,780.5 Z"/></g>
<g><path style="opacity:1" fill="#e3e3e4" d="M 888.5,782.5 C 888.5,784.833 888.5,787.167 888.5,789.5C 887.5,789.5 886.5,789.5 885.5,789.5C 885.5,786.167 885.5,782.833 885.5,779.5C 887.604,779.201 889.604,779.534 891.5,780.5C 890.398,781.176 889.398,781.842 888.5,782.5 Z"/></g>
<g><path style="opacity:1" fill="#494c50" d="M 961.5,779.5 C 958.833,779.5 956.167,779.5 953.5,779.5C 953.5,782.833 953.5,786.167 953.5,789.5C 954.5,789.5 955.5,789.5 956.5,789.5C 956.5,786.833 956.5,784.167 956.5,781.5C 957.822,781.33 958.989,781.663 960,782.5C 960.497,784.81 960.663,787.143 960.5,789.5C 961.5,789.5 962.5,789.5 963.5,789.5C 962.122,790.234 960.622,790.901 959,791.5C 953.416,791.585 947.916,790.918 942.5,789.5C 943.873,789.657 945.207,789.49 946.5,789C 945.027,788.29 944.36,787.124 944.5,785.5C 945.5,785.5 946.5,785.5 947.5,785.5C 947.222,787.346 947.889,788.68 949.5,789.5C 950.988,785.57 950.654,781.904 948.5,778.5C 949.458,778.047 950.292,777.381 951,776.5C 950.923,777.738 951.089,778.738 951.5,779.5C 954.967,778.212 958.3,778.212 961.5,779.5 Z"/></g>
<g><path style="opacity:1" fill="#5b5e62" d="M 1024.5,786.5 C 1023.79,787.404 1022.79,787.737 1021.5,787.5C 1021.5,784.833 1021.5,782.167 1021.5,779.5C 1020.5,779.5 1019.5,779.5 1018.5,779.5C 1018.5,782.5 1018.5,785.5 1018.5,788.5C 1017.54,788.953 1016.71,789.619 1016,790.5C 1015.33,789.748 1014.5,789.414 1013.5,789.5C 1015.2,787.2 1015.87,784.533 1015.5,781.5C 1016.31,783.292 1016.81,785.292 1017,787.5C 1017.5,784.518 1017.66,781.518 1017.5,778.5C 1019.17,778.5 1020.83,778.5 1022.5,778.5C 1021.96,781.698 1022.63,784.365 1024.5,786.5 Z"/></g>
<g><path style="opacity:1" fill="#e4e4e5" d="M 1024.5,786.5 C 1025.17,784.302 1025.83,781.969 1026.5,779.5C 1027.49,782.768 1027.82,786.102 1027.5,789.5C 1024.39,789.736 1021.39,789.403 1018.5,788.5C 1018.5,785.5 1018.5,782.5 1018.5,779.5C 1019.5,779.5 1020.5,779.5 1021.5,779.5C 1021.5,782.167 1021.5,784.833 1021.5,787.5C 1022.79,787.737 1023.79,787.404 1024.5,786.5 Z"/></g>
<g><path style="opacity:1" fill="#929496" d="M 1039.5,779.5 C 1036.83,779.5 1034.17,779.5 1031.5,779.5C 1031.5,782.833 1031.5,786.167 1031.5,789.5C 1030.52,786.038 1030.19,782.371 1030.5,778.5C 1033.71,778.19 1036.71,778.523 1039.5,779.5 Z"/></g>
<g><path style="opacity:1" fill="#dbdcdd" d="M 934.5,785.5 C 932.076,785.192 929.743,785.526 927.5,786.5C 929.135,787.681 930.802,787.681 932.5,786.5C 933.711,787.274 933.711,788.107 932.5,789C 926.165,790.5 923.499,788 924.5,781.5C 927.041,777.93 930.041,777.597 933.5,780.5C 934.452,782.045 934.785,783.712 934.5,785.5 Z"/></g>
<g><path style="opacity:1" fill="#d4d4d5" d="M 1015.5,781.5 C 1015.87,784.533 1015.2,787.2 1013.5,789.5C 1007.15,790.475 1004.65,787.808 1006,781.5C 1009.29,777.527 1012.46,777.527 1015.5,781.5 Z"/></g>
<g><path style="opacity:1" fill="#949699" d="M 1027.5,789.5 C 1027.82,786.102 1027.49,782.768 1026.5,779.5C 1025.83,781.969 1025.17,784.302 1024.5,786.5C 1024.5,783.833 1024.5,781.167 1024.5,778.5C 1025.83,778.5 1027.17,778.5 1028.5,778.5C 1028.81,782.371 1028.48,786.038 1027.5,789.5 Z"/></g>
<g><path style="opacity:1" fill="#6c6f72" d="M 927.5,781.5 C 928.978,781.238 930.311,781.571 931.5,782.5C 930.833,782.833 930.167,783.167 929.5,783.5C 928.287,783.253 927.62,782.586 927.5,781.5 Z"/></g>
<g><path style="opacity:1" fill="#d6d7d8" d="M 984.5,778.5 C 987.596,777.907 989.929,778.907 991.5,781.5C 989.599,782.231 987.599,782.231 985.5,781.5C 985.5,783.5 985.5,785.5 985.5,787.5C 987.5,786.833 989.5,786.167 991.5,785.5C 991.67,786.822 991.337,787.989 990.5,789C 981.412,789.426 979.412,785.926 984.5,778.5 Z"/></g>
<g><path style="opacity:1" fill="#35393e" d="M 1009.5,781.5 C 1010.5,781.5 1011.5,781.5 1012.5,781.5C 1012.5,783.5 1012.5,785.5 1012.5,787.5C 1011.5,787.5 1010.5,787.5 1009.5,787.5C 1009.5,785.5 1009.5,783.5 1009.5,781.5 Z"/></g>
<g><path style="opacity:1" fill="#e6e6e6" d="M 1039.5,779.5 C 1040.48,782.625 1040.81,785.958 1040.5,789.5C 1039.5,789.5 1038.5,789.5 1037.5,789.5C 1037.5,786.833 1037.5,784.167 1037.5,781.5C 1036.18,781.33 1035.01,781.663 1034,782.5C 1034.03,785.361 1033.2,787.695 1031.5,789.5C 1031.5,786.167 1031.5,782.833 1031.5,779.5C 1034.17,779.5 1036.83,779.5 1039.5,779.5 Z"/></g>
<g><path style="opacity:1" fill="#e1e1e2" d="M 979.5,789.5 C 977.088,789.306 976.088,787.973 976.5,785.5C 975.5,785.5 974.5,785.5 973.5,785.5C 973.36,787.124 974.027,788.29 975.5,789C 973.735,789.64 972.068,789.473 970.5,788.5C 970.199,784.381 972.199,782.381 976.5,782.5C 974.833,781.833 973.167,781.167 971.5,780.5C 973.915,777.872 976.415,777.872 979,780.5C 979.498,783.482 979.665,786.482 979.5,789.5 Z"/></g>
<g><path style="opacity:1" fill="#dbdcdd" d="M 996.5,778.5 C 999.596,777.907 1001.93,778.907 1003.5,781.5C 1001.59,782.051 999.587,782.218 997.5,782C 995.91,784.48 996.41,786.313 999,787.5C 1000.3,786.293 1001.8,785.626 1003.5,785.5C 1003.67,786.822 1003.34,787.989 1002.5,789C 997.308,790.872 994.308,789.205 993.5,784C 993.863,781.808 994.863,779.974 996.5,778.5 Z"/></g>
<g><path style="opacity:1" fill="#dadadb" d="M 914.5,789.5 C 913.5,789.5 912.5,789.5 911.5,789.5C 911.5,787.833 911.5,786.167 911.5,784.5C 907.26,784.893 906.593,786.559 909.5,789.5C 905.323,790.158 903.823,788.492 905,784.5C 906.825,783.897 908.659,783.23 910.5,782.5C 908.345,781.999 906.678,780.999 905.5,779.5C 913.783,777.459 916.783,780.792 914.5,789.5 Z"/></g>
<g><path style="opacity:1" fill="#d5d6d7" d="M 900.5,779.5 C 902.081,781.142 902.747,783.142 902.5,785.5C 900.396,785.201 898.396,785.534 896.5,786.5C 897.776,787.645 899.109,787.645 900.5,786.5C 901.711,787.274 901.711,788.107 900.5,789C 897.502,789.891 894.836,789.391 892.5,787.5C 892.5,787.167 892.5,786.833 892.5,786.5C 892.325,784.379 892.659,782.379 893.5,780.5C 895.696,778.455 898.03,778.122 900.5,779.5 Z"/></g>
<g><path style="opacity:1" fill="#686b6e" d="M 895.5,781.5 C 896.978,781.238 898.311,781.571 899.5,782.5C 898.833,782.833 898.167,783.167 897.5,783.5C 896.287,783.253 895.62,782.586 895.5,781.5 Z"/></g>
<g><path style="opacity:1" fill="#dcdcdd" d="M 948.5,778.5 C 950.654,781.904 950.988,785.57 949.5,789.5C 947.889,788.68 947.222,787.346 947.5,785.5C 946.5,785.5 945.5,785.5 944.5,785.5C 944.36,787.124 945.027,788.29 946.5,789C 945.207,789.49 943.873,789.657 942.5,789.5C 940.727,788.686 940.227,787.352 941,785.5C 942.789,783.771 944.956,783.104 947.5,783.5C 947.5,782.5 947.5,781.5 947.5,780.5C 945.669,781.052 944.003,781.052 942.5,780.5C 944.023,778.717 946.023,778.051 948.5,778.5 Z"/></g>
<g><path style="opacity:1" fill="#404448" d="M 917.5,778.5 C 917.389,779.117 917.056,779.617 916.5,780C 917.282,782.74 917.782,785.574 918,788.5C 920.045,790.043 921.545,789.71 922.5,787.5C 923.167,785.5 923.833,783.5 924.5,781.5C 923.499,788 926.165,790.5 932.5,789C 933.711,788.107 933.711,787.274 932.5,786.5C 930.802,787.681 929.135,787.681 927.5,786.5C 929.743,785.526 932.076,785.192 934.5,785.5C 936.74,791.934 935.073,793.601 929.5,790.5C 916.673,790.529 904.173,790.863 892,791.5C 890.466,790.119 890.632,788.786 892.5,787.5C 894.836,789.391 897.502,789.891 900.5,789C 901.711,788.107 901.711,787.274 900.5,786.5C 899.109,787.645 897.776,787.645 896.5,786.5C 898.396,785.534 900.396,785.201 902.5,785.5C 902.747,783.142 902.081,781.142 900.5,779.5C 902.167,780.833 903.833,780.833 905.5,779.5C 906.678,780.999 908.345,781.999 910.5,782.5C 908.659,783.23 906.825,783.897 905,784.5C 903.823,788.492 905.323,790.158 909.5,789.5C 910.167,789.5 910.833,789.5 911.5,789.5C 912.5,789.5 913.5,789.5 914.5,789.5C 915.748,788.666 916.415,787.333 916.5,785.5C 916.37,783.625 916.037,781.792 915.5,780C 915.836,778.97 916.503,778.47 917.5,778.5 Z"/></g>
<g><path style="opacity:1" fill="#9d9fa1" d="M 911.5,789.5 C 910.833,789.5 910.167,789.5 909.5,789.5C 906.593,786.559 907.26,784.893 911.5,784.5C 911.5,786.167 911.5,787.833 911.5,789.5 Z"/></g>
<g><path style="opacity:1" fill="#696c6f" d="M 979.5,789.5 C 978.207,790.158 976.707,790.492 975,790.5C 973.014,790.431 971.514,789.765 970.5,788.5C 972.068,789.473 973.735,789.64 975.5,789C 974.027,788.29 973.36,787.124 973.5,785.5C 974.5,785.5 975.5,785.5 976.5,785.5C 976.088,787.973 977.088,789.306 979.5,789.5 Z"/></g>
<g><path style="opacity:1" fill="#4e4f50" d="M 734.5,962.5 C 737.109,969.051 740.276,975.385 744,981.5C 748.721,987.049 753.554,992.382 758.5,997.5C 745.781,989.06 737.781,977.393 734.5,962.5 Z"/></g>
<g><path style="opacity:1" fill="#1e1e1e" d="M 1135.5,1002.5 C 1131.84,1003.97 1127.51,1004.97 1122.5,1005.5C 1025,1006.12 927.671,1006.79 830.5,1007.5C 827.5,1007.5 824.5,1007.5 821.5,1007.5C 820.552,1006.02 819.219,1005.02 817.5,1004.5C 917.834,1004.67 1018.17,1004.5 1118.5,1004C 1124.16,1003.37 1129.83,1002.87 1135.5,1002.5 Z"/></g>
<g><path style="opacity:1" fill="#07090c" d="M 1122.5,1005.5 C 1119.58,1006.41 1115.24,1006.91 1109.5,1007C 1016.5,1007.5 923.501,1007.67 830.5,1007.5C 927.671,1006.79 1025,1006.12 1122.5,1005.5 Z"/></g>
<g><path style="opacity:1" fill="#525454" d="M 777.5,1007.5 C 781.647,1007.13 785.314,1008.13 788.5,1010.5C 784.521,1010.26 780.854,1009.26 777.5,1007.5 Z"/></g>
<g><path style="opacity:1" fill="#4a4d4e" d="M 1152.5,1002.5 C 1150.3,1004.64 1147.63,1006.14 1144.5,1007C 1128.14,1011.37 1111.47,1013.37 1094.5,1013C 1000.5,1013.67 906.5,1013.67 812.5,1013C 804.6,1012.93 796.934,1012.09 789.5,1010.5C 800.172,1010.69 810.839,1011.02 821.5,1011.5C 821.5,1010.17 821.5,1008.83 821.5,1007.5C 824.5,1007.5 827.5,1007.5 830.5,1007.5C 830.5,1008.83 830.5,1010.17 830.5,1011.5C 923.501,1011.67 1016.5,1011.5 1109.5,1011C 1124.46,1010.91 1138.8,1008.07 1152.5,1002.5 Z"/></g>
</svg>
