<?xml version="1.0" encoding="UTF-8"?>
<svg version="1.1" xmlns="http://www.w3.org/2000/svg" width="1920" height="1080">
<path d="M0 0 C633.6 0 1267.2 0 1920 0 C1920 356.4 1920 712.8 1920 1080 C1286.4 1080 652.8 1080 0 1080 C0 723.6 0 367.2 0 0 Z " fill="#5429F3" transform="translate(0,0)"/>
<path d="M0 0 C1.3361607 0.00301162 2.67232206 0.00574469 4.00848389 0.00820923 C25.22622203 0.06262603 45.98515207 1.0531023 66.9375 4.4375 C68.13729492 4.62473633 69.33708984 4.81197266 70.57324219 5.00488281 C78.41326479 6.2557434 86.18086768 7.74702651 93.9375 9.4375 C95.59724854 9.79835693 95.59724854 9.79835693 97.29052734 10.16650391 C124.82555383 16.29986104 151.3702907 25.54722628 176.9375 37.4375 C177.55725708 37.72512207 178.17701416 38.01274414 178.81555176 38.30908203 C187.01382478 42.1145125 195.19589187 45.95354204 203.36761475 49.81561279 C209.5394656 52.72899424 215.73521333 55.58947097 221.9375 58.4375 C220.28103403 61.98931419 218.49394773 63.93718074 215.5 66.5 C211.62383469 69.89514047 207.93096046 73.39357286 204.3125 77.0625 C201.29106431 80.11774196 198.27238602 83.09042307 195 85.875 C191.46070926 88.89102804 188.20255255 92.13197578 184.9375 95.4375 C181.09149978 99.33117298 177.18594238 103.03787911 173.01171875 106.58203125 C169.3267325 109.87839372 165.90815629 113.45037156 162.453125 116.984375 C158.10193347 121.22746239 158.10193347 121.22746239 155.9375 122.4375 C151.23321396 122.31667074 147.43082845 119.63673297 143.4375 117.375 C114.54334318 101.61970917 78.66395341 91.87412939 45.9375 89.4375 C44.63683594 89.24285156 43.33617187 89.04820312 41.99609375 88.84765625 C39.24183599 88.88303865 38.22701315 89.18708921 36.12084961 91.00878906 C34.20493273 93.34213736 32.50154871 95.74745963 30.8125 98.25 C30.16998291 99.15419678 29.52746582 100.05839355 28.86547852 100.98999023 C27.52792979 102.87244803 26.20029281 104.76198512 24.88232422 106.65820312 C21.96113854 110.83279234 18.91572346 114.91215991 15.875 119 C12.23356505 123.92618927 8.62106795 128.87071327 5.0546875 133.8515625 C4.41797119 134.73384521 3.78125488 135.61612793 3.12524414 136.52514648 C1.89758563 138.22718208 0.67769067 139.93485099 -0.53344727 141.64868164 C-1.08315186 142.40785889 -1.63285645 143.16703613 -2.19921875 143.94921875 C-2.68092529 144.62428467 -3.16263184 145.29935059 -3.65893555 145.99487305 C-4.12211182 146.47093994 -4.58528809 146.94700684 -5.0625 147.4375 C-6.0525 147.4375 -7.0425 147.4375 -8.0625 147.4375 C-9.46606445 145.99487305 -9.46606445 145.99487305 -10.92578125 143.94921875 C-11.47556641 143.18996094 -12.02535156 142.43070313 -12.59179688 141.6484375 C-13.18025391 140.81570313 -13.76871094 139.98296875 -14.375 139.125 C-15.64167009 137.36830425 -16.90860439 135.61179898 -18.17578125 133.85546875 C-18.82240723 132.95231934 -19.4690332 132.04916992 -20.13525391 131.11865234 C-23.07374811 127.03066864 -26.06865836 122.98502113 -29.0625 118.9375 C-30.21125515 117.37914036 -31.35969028 115.82054476 -32.5078125 114.26171875 C-33.08305664 113.48103027 -33.65830078 112.7003418 -34.25097656 111.89599609 C-39.52148438 104.74316406 -44.79199219 97.59033203 -50.0625 90.4375 C-87.5447596 94.75800313 -126.24690658 104.47709402 -160.8425293 119.78979492 C-163.40521253 120.5374908 -164.59763073 120.40334875 -167.0625 119.4375 C-169.47265625 117.46875 -169.47265625 117.46875 -172.125 114.9375 C-175.85366242 111.43531277 -179.63753834 108.08649256 -183.625 104.875 C-187.20078469 101.98901207 -190.66651318 99.03305196 -194.0625 95.9375 C-197.47989372 92.82291332 -200.9677235 89.8456338 -204.5625 86.9375 C-209.01592833 83.33472652 -213.27248186 79.56999655 -217.50390625 75.7109375 C-221.14215124 72.4781763 -224.92029763 69.42936896 -228.71484375 66.3828125 C-230.61428936 64.80889584 -232.36330455 63.22081404 -234.0625 61.4375 C-233.0625 58.4375 -233.0625 58.4375 -230.26879883 56.87866211 C-229.02390172 56.31323409 -227.77367256 55.75946035 -226.51953125 55.21484375 C-225.84840302 54.91326355 -225.17727478 54.61168335 -224.48580933 54.30096436 C-222.28659793 53.31544739 -220.08109069 52.34500797 -217.875 51.375 C-216.35025377 50.69664818 -214.82592279 50.01736225 -213.30200195 49.3371582 C-211.01499983 48.31674717 -208.72759894 47.29733453 -206.43821716 46.28227234 C-202.2563451 44.42681385 -198.09646143 42.53548287 -193.9609375 40.578125 C-156.53229535 22.88851728 -115.74103693 12.16146909 -74.9375 5.6875 C-73.19291504 5.40773315 -73.19291504 5.40773315 -71.41308594 5.12231445 C-67.30209673 4.50232833 -63.18788195 3.95191484 -59.0625 3.4375 C-58.05837067 3.31148407 -57.05424133 3.18546814 -56.01968384 3.05563354 C-37.30954176 0.76812791 -18.84108871 -0.09131119 0 0 Z " fill="#FEFEFE" transform="translate(967.0625,238.5625)"/>
<path d="M0 0 C4.39476248 3.271725 8.21290335 7.05463663 12 11 C12.76054688 11.77601563 13.52109375 12.55203125 14.3046875 13.3515625 C27.88930076 27.85890421 33.56889275 46.46582114 33.25 66.09765625 C31.93036393 86.6963506 23.30032911 103.42418294 9 118 C8.39800781 118.62648438 7.79601562 119.25296875 7.17578125 119.8984375 C-6.95988333 133.45150419 -26.98591937 138.38368397 -46.02734375 138.21484375 C-66.98228749 137.08158721 -84.56238182 127.76538335 -98.7578125 112.75 C-112.59162408 97.32397991 -118.26121497 76.58748188 -117.18652344 56.22607422 C-115.51828228 36.31635846 -105.88318558 18.09633272 -90.7578125 5.1484375 C-64.70404302 -16.12182763 -28.32518393 -18.28916938 0 0 Z " fill="#FDFDFE" transform="translate(733,505)"/>
<path d="M0 0 C16.58635616 13.05685339 28.12119461 30.7347569 30.99609375 51.8984375 C32.76312414 73.61234264 27.83481877 93.85676765 13.74609375 110.8359375 C0.25668358 126.25608386 -18.66960051 135.87012839 -39.11328125 137.2421875 C-59.49934746 138.00709679 -78.95526963 131.33517854 -94.12890625 117.7109375 C-108.26192459 104.51892829 -117.3793038 86.9181014 -118.31640625 67.5 C-118.96094748 45.87027052 -113.79265204 27.24097271 -99.00390625 10.8984375 C-98.32714844 10.12886719 -97.65039062 9.35929688 -96.953125 8.56640625 C-72.05532711 -18.15207156 -29.29673009 -20.49628191 0 0 Z " fill="#FDFDFE" transform="translate(898.00390625,506.1015625)"/>
<path d="M0 0 C67.32 0 134.64 0 204 0 C203.67 1.32 203.34 2.64 203 4 C204.49637821 6.24142366 205.9547974 8.07907918 207.75 10.0625 C208.277146 10.65957764 208.80429199 11.25665527 209.34741211 11.87182617 C220.28446109 24.06447868 231.83907838 36.19348753 245 46 C246.05985107 46.79398193 246.05985107 46.79398193 247.14111328 47.60400391 C251.16403682 50.61278641 255.19998614 53.60341774 259.25390625 56.5703125 C259.97704514 57.1246698 260.70018402 57.6790271 261.44523621 58.25018311 C263.90872623 60.0733361 263.90872623 60.0733361 266.61665344 61.05003357 C270.03333623 62.63303256 271.73944435 63.95098786 274 67 C275.93916838 74.459037 275.15776021 82.58534163 274.9765625 90.21484375 C274.95790143 92.51409325 274.94367146 94.81338262 274.9336853 97.11268616 C274.89558029 103.15209562 274.79741905 109.18908363 274.68664551 115.22753906 C274.58417898 121.39419802 274.53864047 127.56124997 274.48828125 133.72851562 C274.38116992 145.82007188 274.21059429 157.90983427 274 170 C270.57848495 168.66479676 267.52883469 167.22269707 264.41015625 165.27734375 C263.55091553 164.74367188 262.6916748 164.21 261.80639648 163.66015625 C260.90091064 163.09167969 259.9954248 162.52320313 259.0625 161.9375 C258.12027588 161.3496875 257.17805176 160.761875 256.20727539 160.15625 C249.41088862 155.90770934 242.64480088 151.61562247 235.92578125 147.24560547 C233.67571558 145.79025113 231.41595361 144.35049834 229.15625 142.91015625 C205.72888478 127.92070685 184.97747305 110.16593422 165.33520508 90.52050781 C163.80762584 88.99513287 162.27216418 87.47799328 160.73632812 85.9609375 C154.37193308 79.63242423 148.59032417 73.03337058 143 66 C141.94630654 64.73569039 140.88720758 63.47584562 139.8203125 62.22265625 C139.3665625 61.68962891 138.9128125 61.15660156 138.4453125 60.60742188 C137.54170662 59.55009606 136.63805877 58.49280612 135.734375 57.43554688 C132.1284284 53.19908071 132.1284284 53.19908071 130.68505859 50.96166992 C128.54276896 48.46771205 126.75182885 47.8473246 123.65625 46.765625 C122.53492676 46.36504883 121.41360352 45.96447266 120.25830078 45.55175781 C119.01806152 45.12217773 117.77782227 44.69259766 116.5 44.25 C114.4753722 43.53113829 112.45257266 42.80726973 110.42971802 42.08343506 C108.96937252 41.56131768 107.50847827 41.04073306 106.04708862 40.52154541 C97.61411374 37.52241021 89.22952429 34.39485455 80.84439087 31.26495361 C78.11117761 30.24484109 75.37732457 29.22646034 72.64331055 28.20849609 C55.21051807 21.71577602 37.79250645 15.18364668 20.37744141 8.64355469 C13.58589355 6.0932171 6.79291615 3.54669034 0 1 C0 0.67 0 0.34 0 0 Z " fill="#FEFDFE" transform="translate(657,667)"/>
<path d="M0 0 C67.32 0 134.64 0 204 0 C201.83927384 2.16072616 200.49307242 2.70632033 197.65576172 3.73657227 C196.30065994 4.23333214 196.30065994 4.23333214 194.91818237 4.74012756 C193.43887741 5.27288551 193.43887741 5.27288551 191.9296875 5.81640625 C190.90183136 6.1917601 189.87397522 6.56711395 188.81497192 6.95384216 C185.50353327 8.16197949 182.18939574 9.36250172 178.875 10.5625 C174.58003369 12.12439422 170.2861197 13.68917169 165.9921875 15.25390625 C164.3746608 15.84249672 164.3746608 15.84249672 162.72445679 16.44297791 C153.40701173 19.83826647 144.12074157 23.31349399 134.83935547 26.8059082 C129.09911894 28.96544319 123.35149663 31.10472134 117.6015625 33.23828125 C116.23280472 33.74649162 116.23280472 33.74649162 114.83639526 34.26496887 C111.16044218 35.62970291 107.48433273 36.99401074 103.80761719 38.35668945 C101.05100953 39.37858485 98.29499483 40.40206621 95.5390625 41.42578125 C94.72539215 41.72688309 93.9117218 42.02798492 93.07339478 42.33821106 C88.02386038 44.21551875 83.02518675 46.1899012 78.04745483 48.25065613 C76 49 76 49 74 49 C73.74992187 49.55945313 73.49984375 50.11890625 73.2421875 50.6953125 C70.58597984 55.62349652 66.5940829 59.73186758 63 64 C62.52143555 64.57169922 62.04287109 65.14339844 61.54980469 65.73242188 C55.93594361 72.42798708 50.26108627 78.91718173 43.98828125 85.01171875 C42.16627714 86.83372286 40.52127347 88.70780405 38.875 90.6875 C33.15094709 97.33478725 26.49103401 103.12009333 20 109 C19.39091797 109.55381348 18.78183594 110.10762695 18.15429688 110.67822266 C2.29619214 125.01350068 -15.03191001 136.92287486 -33.14453125 148.21484375 C-38.0513024 151.28241477 -42.93083475 154.39269522 -47.8125 157.5 C-48.70106689 158.06332031 -49.58963379 158.62664062 -50.50512695 159.20703125 C-55.46467595 162.35708492 -60.36192068 165.57311976 -65.1940918 168.91601562 C-67 170 -67 170 -69 170 C-69.44157112 156.66596461 -69.77847074 143.33368503 -69.98443127 129.9938097 C-70.08332595 123.79800342 -70.21724266 117.60722064 -70.43334961 111.41430664 C-70.64088264 105.42915411 -70.75360111 99.44880697 -70.80266762 93.46033287 C-70.83759304 91.18440742 -70.90581351 88.9087259 -71.00887108 86.63486671 C-71.76255365 69.30526731 -71.76255365 69.30526731 -67.16427994 63.80364609 C-62.65869841 59.84872316 -57.66658108 57.0085388 -52.35204506 54.28545189 C-48.79939317 52.34383811 -45.6991431 49.9190762 -42.5625 47.375 C-41.97638097 46.90709895 -41.39026194 46.4391979 -40.78638172 45.95711803 C-35.89206077 42.03223192 -31.28580071 37.80545853 -26.71875 33.5078125 C-24.79433449 31.73270509 -22.87770149 30.05542142 -20.85546875 28.40234375 C-18.58167618 26.48937189 -16.70321934 24.70332183 -14.8125 22.4375 C-12.64758137 19.88338252 -10.44419841 17.38961842 -8.14453125 14.95703125 C-7.64655029 14.42730713 -7.14856934 13.89758301 -6.63549805 13.35180664 C-5.64380578 12.30016724 -4.64671712 11.25358542 -3.64379883 10.21264648 C-0.23378309 6.63292357 -0.23378309 6.63292357 1 2 C0.505 1.01 0.505 1.01 0 0 Z " fill="#FEFEFE" transform="translate(1060,667)"/>
<path d="M0 0 C12.08625 -0.061875 24.1725 -0.12375 36.625 -0.1875 C40.41307129 -0.21481201 44.20114258 -0.24212402 48.10400391 -0.27026367 C52.80151367 -0.28381348 52.80151367 -0.28381348 55.01449585 -0.28633118 C56.529741 -0.29087785 58.0449767 -0.30130091 59.56015015 -0.31672668 C77.54668929 -0.49037071 93.27479353 1.88972075 106.93359375 14.7421875 C119.86730918 28.87392193 121.76915587 44.96137105 121.17919922 63.23535156 C120.2892089 76.96593797 112.9236355 87.52490104 103.46484375 96.96875 C101.02441264 98.97988182 98.98623943 100.02055605 96 101 C100.74660772 108.1723925 105.52697325 115.32017996 110.37890625 122.421875 C110.75861069 122.9781105 111.13831512 123.53434601 111.52952576 124.10743713 C113.44488692 126.91287745 115.36292537 129.71642874 117.28491211 132.51733398 C118.35044312 134.07689819 118.35044312 134.07689819 119.4375 135.66796875 C120.07558594 136.59891357 120.71367188 137.5298584 121.37109375 138.48901367 C122.75455812 140.62164722 123.88929888 142.72087769 125 145 C118.98624962 145.22297148 112.97491662 145.38601105 106.95800781 145.49438477 C104.91298509 145.53956701 102.86825188 145.60092981 100.82421875 145.67895508 C97.87948281 145.78852332 94.93859387 145.83924086 91.9921875 145.87890625 C91.0825827 145.92535782 90.17297791 145.97180939 89.23580933 146.01966858 C86.54738559 146.02179253 84.53408336 145.90923652 82 145 C79.37074291 142.30015103 77.71401176 139.3332708 76 136 C75.15289982 134.56871078 74.2998154 133.14092428 73.4375 131.71875 C72.21579492 129.61383774 71.00244413 127.50424963 69.7890625 125.39453125 C68.96987266 123.98312455 68.13524513 122.58056835 67.28564453 121.18725586 C66 119 66 119 64.80419922 116.50219727 C63.40589564 113.87289737 62.21553598 111.99947999 60 110 C55.68136504 108.76963032 51.58952942 108.83136604 47.125 108.9375 C43.12375 108.958125 39.1225 108.97875 35 109 C35 120.88 35 132.76 35 145 C23.45 145 11.9 145 0 145 C0 97.15 0 49.3 0 0 Z " fill="#FDFDFE" transform="translate(479,495)"/>
<path d="M0 0 C11.22 0 22.44 0 34 0 C34 20.79 34 41.58 34 63 C42.04533199 54.95466801 49.55911893 46.64080932 56.6875 37.78125 C59.64110477 34.22894156 62.76782323 30.86137228 65.9140625 27.48046875 C68.90441358 24.24788253 71.73786329 20.93294134 74.5 17.5 C75.19697998 16.66629883 75.89395996 15.83259766 76.61206055 14.97363281 C79.04218837 12.04283679 79.04218837 12.04283679 81.06567383 8.86425781 C84.22037444 4.58214611 87.02376765 0.79996661 92.34344482 -0.62988281 C98.94891548 -1.49816354 105.55615397 -1.09482349 112.1875 -0.75 C114.20882519 -0.68971515 116.23032388 -0.6349784 118.25195312 -0.5859375 C123.17230082 -0.45459843 128.08421455 -0.2481274 133 0 C131.38182825 3.40829937 129.52234036 5.79530758 126.9375 8.5625 C123.66981527 12.12296928 120.53520807 15.7393292 117.5 19.5 C114.5918662 23.0947765 111.61458668 26.58260628 108.5 30 C104.63010845 34.25218587 100.96921102 38.63773674 97.3515625 43.10546875 C94.73904705 46.3212062 92.09303071 49.50728591 89.4375 52.6875 C88.99543213 53.21714355 88.55336426 53.74678711 88.09790039 54.29248047 C87.06568718 55.52867134 86.03290913 56.76439054 85 58 C86.63121017 63.13679226 89.76460713 67.04156103 92.9375 71.3125 C94.12647019 72.93512166 95.31394559 74.55883958 96.5 76.18359375 C97.38945313 77.40151611 97.38945313 77.40151611 98.296875 78.64404297 C100.73434069 82.01582392 103.09388632 85.43758307 105.4375 88.875 C109.4820489 94.79853583 113.5687246 100.69030637 117.6875 106.5625 C123.02800368 114.18250519 128.36437924 121.80533741 133.6875 129.4375 C134.37094482 130.41468994 135.05438965 131.39187988 135.75854492 132.39868164 C136.39896729 133.31770264 137.03938965 134.23672363 137.69921875 135.18359375 C138.26471436 135.99368896 138.83020996 136.80378418 139.4128418 137.63842773 C141.03044602 140.04530139 142.52972946 142.50090079 144 145 C137.77499035 145.34817202 131.55572086 145.60098692 125.32324219 145.76904297 C123.20797997 145.83912112 121.09338825 145.93442981 118.98046875 146.05615234 C102.20541496 146.99777093 102.20541496 146.99777093 97.22686768 143.89489746 C94.038372 140.84468214 92.12452201 137.11161797 90.16534424 133.20220947 C87.99945379 129.10921762 85.29239836 125.35885839 82.6953125 121.53125 C81.60328115 119.87469103 80.5147607 118.21581249 79.4296875 116.5546875 C78.88666992 115.72420898 78.34365234 114.89373047 77.78417969 114.03808594 C76.96288574 112.7817334 76.96288574 112.7817334 76.125 111.5 C75.00026743 109.78367888 73.87526877 108.06753211 72.75 106.3515625 C71.16849128 103.93978876 69.58733452 101.52779481 68.0083313 99.11437988 C67.09154873 97.71327014 66.17274958 96.31347693 65.25152588 94.9152832 C64.43548608 93.6664498 63.63093575 92.41000977 62.83978271 91.14526367 C61.9430566 89.73063701 60.97830504 88.35948724 60 87 C57.94725654 86.76542458 57.94725654 86.76542458 56.765625 88.22265625 C56.26546875 88.82980469 55.7653125 89.43695312 55.25 90.0625 C50.94365999 95.14599266 46.37821335 99.96971193 41.79980469 104.80688477 C40.91470215 105.74745728 40.91470215 105.74745728 40.01171875 106.70703125 C39.48022217 107.2688208 38.94872559 107.83061035 38.40112305 108.40942383 C34.95434727 112.32225606 34.66975254 115.30835144 34.5859375 120.29296875 C34.55032715 121.58485107 34.5147168 122.8767334 34.47802734 124.20776367 C34.44402832 125.85107666 34.4100293 127.49438965 34.375 129.1875 C34.25125 134.405625 34.1275 139.62375 34 145 C22.78 145 11.56 145 0 145 C0 97.15 0 49.3 0 0 Z " fill="#FEFDFE" transform="translate(953,495)"/>
<path d="M0 0 C27.1940625 -0.0309375 27.1940625 -0.0309375 54.9375 -0.0625 C60.67116943 -0.071604 66.40483887 -0.08070801 72.31225586 -0.09008789 C79.29016113 -0.09460449 79.29016113 -0.09460449 82.55226135 -0.09544373 C84.84055271 -0.09698373 87.12884324 -0.10050981 89.41712952 -0.10557556 C92.87437357 -0.11284941 96.33156785 -0.11390754 99.78881836 -0.11352539 C101.329201 -0.11892255 101.329201 -0.11892255 102.90070248 -0.12442875 C103.82569829 -0.12305125 104.7506941 -0.12167376 105.70372009 -0.12025452 C106.51397613 -0.12117631 107.32423216 -0.1220981 108.1590414 -0.12304783 C110 0 110 0 111 1 C111 11.23 111 21.46 111 32 C85.92 32 60.84 32 35 32 C35 40.58 35 49.16 35 58 C55.79 58 76.58 58 98 58 C98 67.9 98 77.8 98 88 C77.21 88 56.42 88 35 88 C35 96.25 35 104.5 35 113 C38.40010376 112.99214478 38.40010376 112.99214478 41.86889648 112.98413086 C49.34077457 112.96759432 56.81265344 112.95652852 64.28454494 112.94818783 C68.81674094 112.94295922 73.34891827 112.93586199 77.88110352 112.92456055 C82.2512283 112.91373086 86.62133508 112.90772299 90.99147224 112.90512276 C92.66250963 112.90326865 94.33354597 112.89964832 96.00457573 112.89426994 C98.33697551 112.88705841 100.66929993 112.8860091 103.00170898 112.88647461 C103.6994191 112.88287933 104.39712921 112.87928406 105.11598206 112.87557983 C109.88594784 112.88594784 109.88594784 112.88594784 111 114 C111 124.23 111 134.46 111 145 C74.37 145 37.74 145 0 145 C0 97.15 0 49.3 0 0 Z " fill="#FDFDFE" transform="translate(1187,495)"/>
<path d="M0 0 C10.00212067 7.54209983 16.86758157 16.81837277 20 29 C20.495 33.455 20.495 33.455 21 38 C9.45 38 -2.1 38 -14 38 C-15.32 35.03 -16.64 32.06 -18 29 C-24.98856665 22.91735865 -31.50453881 21.58911882 -40.671875 21.74609375 C-47.35482675 22.25594336 -54.46312104 23.73136637 -59 29 C-60.3309316 32.39969811 -60.3309316 32.39969811 -60 36 C-52.31706136 45.16951085 -38.11379823 46.83676033 -27.0625 49.9375 C11.43417068 60.77992474 11.43417068 60.77992474 21.3828125 78.45703125 C25.45784784 87.96069758 25.59553012 99.38047973 22.25 109.125 C20.57110264 113.07395577 18.60869558 116.57608705 16 120 C15.195625 121.2065625 15.195625 121.2065625 14.375 122.4375 C2.98472886 134.72700307 -13.68360386 139.21017099 -29.8984375 140.25 C-49.65188126 140.57583 -68.740464 136.14288837 -83.375 122.1875 C-92.90070481 112.06643863 -98 100.95583886 -98 87 C-86.78 87 -75.56 87 -64 87 C-62.02 90.96 -60.04 94.92 -58 99 C-51.49046858 105.87117206 -44.10856919 108.61575302 -34.6875 109.125 C-27.17174359 109.30831113 -20.2499454 108.59554809 -14 104 C-11.52757277 100.29135916 -11.23980247 97.29933934 -12 93 C-17.88183167 83.63263846 -33.89884684 81.85992144 -43.875 79.5625 C-58.41143291 76.05218949 -71.05610461 72.36457168 -83 63 C-83.9075 62.401875 -84.815 61.80375 -85.75 61.1875 C-91.51618832 55.58148358 -95.56934322 47.7204458 -96.30078125 39.703125 C-96.34848547 25.64628272 -92.94637628 16.22243382 -83.375 5.875 C-62.23089649 -14.26606255 -23.86222234 -16.32103146 0 0 Z " fill="#FDFDFE" transform="translate(1418,503)"/>
<path d="M0 0 C4.00395043 3.32242695 7.78309745 6.73234186 11.4375 10.4375 C14.10562519 13.14143895 16.78809696 15.73415897 19.6875 18.1875 C24.2865579 22.12296638 28.49391946 26.44001763 32.7253418 30.76245117 C35.70045214 33.78168122 38.72510904 36.67057732 41.9375 39.4375 C46.88994174 43.71244008 51.42177931 48.37142343 56 53.0390625 C59.15810823 56.23417981 62.33176228 59.33319798 65.75 62.25 C66.39662598 62.82830566 67.04325195 63.40661133 67.70947266 64.00244141 C69.4624838 65.53123454 71.276701 66.99009874 73.11474609 68.41552734 C78.88848519 73.16970872 82.51426536 77.18812123 83.38824463 84.81329346 C83.64874171 89.08951485 83.6657252 93.34246577 83.625 97.625 C83.65382302 100.21272072 83.69949825 102.79965994 83.74935913 105.38705444 C83.77440481 106.98114157 83.78531272 108.57557206 83.77627563 110.16983032 C83.78965986 118.96140193 85.00759451 127.06835057 86 136 C19.01 136 -47.98 136 -117 136 C-114.58524203 134.39016136 -112.85409717 133.46843459 -110.19848633 132.49804688 C-109.430905 132.2152739 -108.66332367 131.93250092 -107.8724823 131.64115906 C-107.03413345 131.33676407 -106.19578461 131.03236908 -105.33203125 130.71875 C-104.00169609 130.23007195 -104.00169609 130.23007195 -102.64448547 129.73152161 C-100.71503365 129.02310458 -98.784947 128.31641474 -96.85430908 127.61123657 C-91.65373231 125.71135694 -86.45797086 123.79838794 -81.26171875 121.88671875 C-79.6389502 121.29022774 -79.6389502 121.29022774 -77.98339844 120.6816864 C-66.01126078 116.27686098 -54.0668078 111.79877181 -42.125 107.3125 C-41.12651031 106.93754395 -40.12802063 106.56258789 -39.09927368 106.17626953 C-34.42559599 104.42117314 -29.75219426 102.66534476 -25.07910156 100.90869141 C-18.05431123 98.26825623 -11.02727625 95.63381053 -4 93 C-3.68423527 85.83347356 -3.37201517 78.66679908 -3.0625 71.5 C-3.01642609 70.43411652 -2.97035217 69.36823303 -2.92288208 68.27005005 C-2.29127325 53.5912618 -1.71986266 38.91425809 -1.34204102 24.2265625 C-1.12081623 16.12962277 -0.63834352 8.07470065 0 0 Z " fill="#FEFDFE" transform="translate(694,334)"/>
<path d="M0 0 C0.71244896 5.92225053 1.19537016 11.77279259 1.38891602 17.73266602 C1.41832275 18.55328018 1.44772949 19.37389435 1.47802734 20.21937561 C1.57320495 22.89745049 1.66359842 25.57566313 1.75390625 28.25390625 C1.81944068 30.1243543 1.88527689 31.99479181 1.95140076 33.86521912 C2.12372407 38.76244178 2.29197472 43.65979602 2.45935059 48.55718994 C2.63122735 53.56490601 2.8069928 58.57248546 2.98242188 63.58007812 C3.32540044 73.3865896 3.6640726 83.19324463 4 93 C4.58769165 93.21725235 5.1753833 93.4345047 5.78088379 93.65834045 C32.15455204 103.40880051 58.52751783 113.16003466 84.84375 123.06469727 C95.54509922 127.0908605 106.26696576 131.05908578 117 135 C117 135.33 117 135.66 117 136 C50.01 136 -16.98 136 -86 136 C-85.01 127.42 -84.02 118.84 -83 110 C-82.81632348 103.57402297 -82.66296576 97.19514576 -82.79052734 90.77172852 C-82.9734472 79.63615112 -82.9734472 79.63615112 -80.67382812 75.77099609 C-78.89330161 73.95055426 -77.06169036 72.49167317 -75 71 C-73.69868955 69.88616927 -72.40717724 68.76080337 -71.125 67.625 C-70.45597656 67.0475 -69.78695313 66.47 -69.09765625 65.875 C-65.23225146 62.41988957 -61.633567 58.69557326 -58 55 C-49.57808043 46.43436166 -49.57808043 46.43436166 -45.03125 42.53125 C-40.26833486 38.43797243 -35.90285874 33.97353063 -31.5 29.5 C-26.44034028 24.35912584 -21.35894453 19.35985608 -15.88427734 14.66162109 C-12.79802402 11.94005591 -9.93685971 9.00441223 -7.0625 6.0625 C-1.13280394 0 -1.13280394 0 0 0 Z " fill="#FEFDFE" transform="translate(1227,334)"/>
<path d="M0 0 C7.62715371 6.09001141 13.09981208 14.95905418 14.75 24.63671875 C16.12931893 37.67559301 13.9900658 49.17909267 5.91796875 59.78125 C-2.21667236 69.19158839 -12.12685447 74.73507366 -24.625 75.8125 C-36.01000939 76.4596479 -44.72639016 73.4765426 -54 67 C-55.051875 66.278125 -56.10375 65.55625 -57.1875 64.8125 C-66.10972731 55.89027269 -70.31272599 45.64175616 -71 33.2421875 C-71 21.1549615 -66.14064125 10.78725023 -58 2 C-40.79817058 -13.51267182 -18.35095811 -13.7417471 0 0 Z " fill="#562BF3" transform="translate(882,535)"/>
<path d="M0 0 C5.6751185 4.70088982 9.4683176 9.72177897 12.71875 16.31640625 C13.0590625 16.97769531 13.399375 17.63898437 13.75 18.3203125 C17.80063237 27.90305852 17.07684076 40.77190053 13.65625 50.37890625 C8.44478196 61.95185902 0.48674726 69.41468829 -11.03125 74.69140625 C-22.94282789 79.00421894 -34.96194935 77.65823273 -46.40625 72.69140625 C-57.10812033 66.80537757 -64.54749764 57.51602211 -68.15625 45.94140625 C-70.87637707 34.34421778 -69.49854644 23.3256234 -63.92578125 12.7421875 C-62.4912657 10.47696054 -60.97009501 8.39781572 -59.28125 6.31640625 C-58.77980469 5.69121094 -58.27835938 5.06601562 -57.76171875 4.421875 C-43.03123906 -12.02895268 -17.18937944 -12.6859975 0 0 Z " fill="#582DF3" transform="translate(717.28125,533.68359375)"/>
<path d="M0 0 C11.55 0 23.1 0 35 0 C35 47.85 35 95.7 35 145 C23.45 145 11.9 145 0 145 C0 97.15 0 49.3 0 0 Z " fill="#FDFCFE" transform="translate(1119,495)"/>
<path d="M0 0 C7.6415625 -0.0928125 7.6415625 -0.0928125 15.4375 -0.1875 C17.02618896 -0.21481201 18.61487793 -0.24212402 20.25170898 -0.27026367 C29.00426087 -0.32162258 37.04692323 -0.19473335 44.3125 5.25 C49.38672773 10.44223302 51.7240521 15.10133923 52.15234375 22.31640625 C51.7507831 29.39005147 49.34074731 35.23718291 44.125 40.0625 C38.64638575 44.59843771 32.90044797 45.29602645 25.9765625 45.1953125 C25.31422607 45.19329834 24.65188965 45.19128418 23.96948242 45.18920898 C21.52125005 45.17883155 19.07311726 45.15090964 16.625 45.125 C8.395625 45.063125 8.395625 45.063125 0 45 C0 30.15 0 15.3 0 0 Z " fill="#5B30F3" transform="translate(514,527)"/>
<path d="M0 0 C5.61 0 11.22 0 17 0 C18.0656596 2.85301951 19.12752421 5.70736852 20.1875 8.5625 C20.62545898 9.73329102 20.62545898 9.73329102 21.07226562 10.92773438 C23.90373271 18.56965091 26.41754998 26.25264994 29 34 C29.33 22.78 29.66 11.56 30 0 C34.29 0 38.58 0 43 0 C43 19.8 43 39.6 43 60 C37.39 60 31.78 60 26 60 C22.04 48.12 18.08 36.24 14 24 C13.67 35.88 13.34 47.76 13 60 C8.71 60 4.42 60 0 60 C0 40.2 0 20.4 0 0 Z " fill="#FAF9FE" transform="translate(894,410)"/>
<path d="M0 0 C0.83265381 0.00523682 1.66530762 0.01047363 2.52319336 0.01586914 C3.42231445 0.0190918 4.32143555 0.02231445 5.24780273 0.02563477 C6.66609375 0.03820312 6.66609375 0.03820312 8.11303711 0.05102539 C9.06243164 0.05553711 10.01182617 0.06004883 10.98999023 0.06469727 C13.3435708 0.0765243 15.69701292 0.09384445 18.05053711 0.11352539 C20.47374759 6.96410539 22.21906518 13.79571763 23.74975586 20.89477539 C23.98966751 21.98947144 24.22957916 23.08416748 24.47676086 24.21203613 C25.23510027 27.67821757 25.98653217 31.14585654 26.73803711 34.61352539 C27.25388733 36.97299353 27.77015917 39.33236953 28.28686523 41.69165039 C30.16889412 50.30847858 30.16889412 50.30847858 31.08837891 54.55297852 C31.36792671 55.84129578 31.36792671 55.84129578 31.65312195 57.15563965 C32.05053711 59.11352539 32.05053711 59.11352539 32.05053711 60.11352539 C26.77053711 60.11352539 21.49053711 60.11352539 16.05053711 60.11352539 C15.39053711 56.15352539 14.73053711 52.19352539 14.05053711 48.11352539 C8.11053711 48.60852539 8.11053711 48.60852539 2.05053711 49.11352539 C1.74116211 50.74290039 1.43178711 52.37227539 1.11303711 54.05102539 C0.17553711 58.98852539 0.17553711 58.98852539 -0.94946289 60.11352539 C-3.30259844 60.18624281 -5.65779958 60.19723407 -8.01196289 60.17602539 C-9.30231445 60.16700195 -10.59266602 60.15797852 -11.92211914 60.14868164 C-12.92114258 60.13708008 -13.92016602 60.12547852 -14.94946289 60.11352539 C-14.29992793 53.04203466 -13.02211764 46.25991017 -11.48071289 39.33227539 C-11.24034302 38.23757935 -10.99997314 37.1428833 -10.75231934 36.01501465 C-10.2468944 33.71857573 -9.73916755 31.42264235 -9.22924805 29.12719727 C-8.44601139 25.59797312 -7.6718575 22.06684073 -6.89868164 18.53540039 C-6.40572811 16.30090707 -5.91225714 14.06652781 -5.41821289 11.83227539 C-5.18589966 10.7719812 -4.95358643 9.71168701 -4.7142334 8.6192627 C-4.49730835 7.64734985 -4.2803833 6.67543701 -4.05688477 5.67407227 C-3.86670776 4.81519409 -3.67653076 3.95631592 -3.48059082 3.07141113 C-2.78763082 0.51696724 -2.66773723 0.15535351 0 0 Z " fill="#FAF9FE" transform="translate(856.949462890625,409.886474609375)"/>
<path d="M0 0 C6.93 0 13.86 0 21 0 C23.93144123 11.47699584 26.61561004 22.98782706 29.14697266 34.55932617 C29.75928964 37.35491266 30.37753353 40.14914841 30.99609375 42.94335938 C31.38837389 44.72908915 31.78031415 46.51489362 32.171875 48.30078125 C32.3561908 49.13192947 32.54050659 49.9630777 32.73040771 50.81941223 C33.40811935 53.93490686 34 56.80140046 34 60 C29.05 60 24.1 60 19 60 C17.86235649 55.73383684 17 52.43513689 17 48 C12.71 48 8.42 48 4 48 C3.34 51.96 2.68 55.92 2 60 C-2.95 60 -7.9 60 -13 60 C-10.30612933 46.1962351 -7.36901047 32.46354402 -4.25 18.75 C-3.83440742 16.9141141 -3.41904201 15.07817675 -3.00390625 13.2421875 C-2.00561479 8.82743242 -1.00273695 4.41375665 0 0 Z " fill="#FAF9FE" transform="translate(993,410)"/>
<path d="M0 0 C6.11445023 4.91814475 7.52242411 8.76061792 8.875 16.3125 C4.255 16.3125 -0.365 16.3125 -5.125 16.3125 C-6.115 14.3325 -7.105 12.3525 -8.125 10.3125 C-11.07420623 8.93005958 -11.96430034 9.25893345 -15.125 10.3125 C-15.125 12.6225 -15.125 14.9325 -15.125 17.3125 C-14.196875 17.84875 -13.26875 18.385 -12.3125 18.9375 C-11.67957031 19.30359375 -11.04664063 19.6696875 -10.39453125 20.046875 C-8.7442367 20.96717695 -7.07146995 21.84753095 -5.38671875 22.703125 C1.36355326 26.1741715 5.47170642 28.96368305 9.1875 35.6875 C10.92197032 42.31002303 10.14293815 47.34006132 6.875 53.3125 C2.51673379 58.47360472 -1.67129398 60.38926817 -8.3125 61.125 C-15.43318596 61.65352595 -21.40066493 60.45718931 -27.0625 56 C-30.71555509 51.23995852 -32.125 48.40126422 -32.125 42.3125 C-27.175 42.3125 -22.225 42.3125 -17.125 42.3125 C-15.64 45.7775 -15.64 45.7775 -14.125 49.3125 C-11.485 49.3125 -8.845 49.3125 -6.125 49.3125 C-6.0425 48.075 -5.96 46.8375 -5.875 45.5625 C-5.82859375 44.86640625 -5.7821875 44.1703125 -5.734375 43.453125 C-6.31054312 40.29572369 -7.63852732 39.31989116 -10.125 37.3125 C-13.20653568 35.49977898 -16.42097589 33.95830877 -19.63671875 32.40039062 C-24.76815035 29.80394769 -27.73768385 27.07408544 -30.37109375 21.83203125 C-31.75269641 17.21475812 -31.34614721 12.93864498 -30.125 8.3125 C-24.02825666 -1.82149697 -10.82645994 -5.81333827 0 0 Z " fill="#FAF9FE" transform="translate(1063.125,410.6875)"/>
<path d="M0 0 C2.17142404 2.17142404 2.60299758 3.36732977 3.5078125 6.24609375 C3.90419922 7.50196289 3.90419922 7.50196289 4.30859375 8.78320312 C4.57800781 9.65912109 4.84742188 10.53503906 5.125 11.4375 C5.40214844 12.30955078 5.67929687 13.18160156 5.96484375 14.08007812 C8 20.60160099 8 20.60160099 8 24 C16.25 24 24.5 24 33 24 C33 24.66 33 25.32 33 26 C30.96633799 27.54236738 28.93877684 28.97124441 26.8125 30.375 C22.73301814 33.1037504 18.79231922 35.87187229 15 39 C16.13592287 45.7557518 17.91454413 52.0718476 20.1953125 58.53125 C21 61 21 61 21 63 C16.25117019 60.92238696 12.26298029 57.62526668 8.1328125 54.54492188 C3.93098 51.40628749 3.93098 51.40628749 -1 50 C-3.34483256 51.50400876 -5.37176294 52.98370802 -7.5 54.75 C-8.06847656 55.20632813 -8.63695312 55.66265625 -9.22265625 56.1328125 C-10.82032638 57.41539687 -12.41039059 58.70743881 -14 60 C-17.74358974 63 -17.74358974 63 -20 63 C-17.74868611 54.64284994 -15.39214186 46.31785366 -13 38 C-13.67417969 37.78472656 -14.34835937 37.56945312 -15.04296875 37.34765625 C-18.93843456 35.57231186 -21.99076856 33.10925309 -25.3125 30.4375 C-25.95767578 29.93025391 -26.60285156 29.42300781 -27.26757812 28.90039062 C-28.86795405 27.62855748 -30.43708004 26.31759017 -32 25 C-32 24.67 -32 24.34 -32 24 C-23.75 24 -15.5 24 -7 24 C-6.01 20.37 -5.02 16.74 -4 13 C-3.2845562 10.60003301 -2.55801705 8.20329604 -1.8125 5.8125 C-1.46832031 4.70519531 -1.12414062 3.59789062 -0.76953125 2.45703125 C-0.38861328 1.24080078 -0.38861328 1.24080078 0 0 Z " fill="#FAF9FE" transform="translate(960,654)"/>
<path d="M0 0 C5.754375 -0.020625 11.50875 -0.04125 17.4375 -0.0625 C19.25564209 -0.071604 21.07378418 -0.08070801 22.94702148 -0.09008789 C24.38004482 -0.09300711 25.81306898 -0.09555566 27.24609375 -0.09765625 C27.99669067 -0.10277222 28.7472876 -0.10788818 29.52062988 -0.11315918 C31.34747601 -0.11346992 33.17421683 -0.06231113 35 0 C36 1 36 1 36.1328125 3.25 C36.13023437 4.1575 36.12765625 5.065 36.125 6 C36.12886719 7.36125 36.12886719 7.36125 36.1328125 8.75 C36 11 36 11 35 12 C33.5112814 12.08669432 32.018555 12.10703494 30.52734375 12.09765625 C29.62822266 12.09443359 28.72910156 12.09121094 27.80273438 12.08789062 C26.85720703 12.07951172 25.91167969 12.07113281 24.9375 12.0625 C23.98810547 12.05798828 23.03871094 12.05347656 22.06054688 12.04882812 C19.70700469 12.03700128 17.35349468 12.01906521 15 12 C15 15.96 15 19.92 15 24 C21.27 24 27.54 24 34 24 C34 27.96 34 31.92 34 36 C27.73 36 21.46 36 15 36 C15 43.92 15 51.84 15 60 C10.05 60 5.1 60 0 60 C0 40.2 0 20.4 0 0 Z " fill="#F9F7FE" transform="translate(806,410)"/>
<path d="M0 0 C5.28 0 10.56 0 16 0 C16.40992188 1.32515625 16.81984375 2.6503125 17.2421875 4.015625 C17.78627969 5.76047238 18.3305604 7.50526099 18.875 9.25 C19.14441406 10.12269531 19.41382813 10.99539063 19.69140625 11.89453125 C19.95566406 12.73886719 20.21992187 13.58320313 20.4921875 14.453125 C20.85352783 15.61569824 20.85352783 15.61569824 21.22216797 16.80175781 C22.0748306 19.35506023 22.0748306 19.35506023 24 23 C26.31 15.41 28.62 7.82 31 0 C35.95 0 40.9 0 46 0 C44.36328148 5.33936497 42.43798646 10.3673669 40.1171875 15.44921875 C33.3531705 30.42860338 29.10279172 43.24636085 30 60 C25.38 60 20.76 60 16 60 C16.10183594 58.90171875 16.20367188 57.8034375 16.30859375 56.671875 C17.05337565 38.98750489 9.49972584 24.00331687 2.26123047 8.29202271 C0.92218578 5.34658745 0 3.27618993 0 0 Z " fill="#FBFAFE" transform="translate(1074,410)"/>
<path d="M0 0 C13.2 0 26.4 0 40 0 C40 3.96 40 7.92 40 12 C35.71 12 31.42 12 27 12 C27 27.84 27 43.68 27 60 C22.38 60 17.76 60 13 60 C13 44.16 13 28.32 13 12 C8.71 12 4.42 12 0 12 C0 8.04 0 4.08 0 0 Z " fill="#FCFBFE" transform="translate(943,410)"/>
<path d="M0 0 C1.51024069 2.76870955 2.36707684 5.18648124 2.88671875 8.29296875 C3.0868457 9.4850293 3.0868457 9.4850293 3.29101562 10.70117188 C3.42185547 11.52166016 3.55269531 12.34214844 3.6875 13.1875 C3.82994141 14.01958984 3.97238281 14.85167969 4.11914062 15.70898438 C4.46144833 17.79859411 4.73658314 19.89898715 5 22 C4 23 4 23 2.15234375 23.09765625 C0.1015625 23.06510417 -1.94921875 23.03255208 -4 23 C-3.52651786 19.54086334 -3.04525236 16.08285411 -2.5625 12.625 C-2.42779297 11.64015625 -2.29308594 10.6553125 -2.15429688 9.640625 C-2.02216797 8.69960938 -1.89003906 7.75859375 -1.75390625 6.7890625 C-1.63345947 5.91975098 -1.5130127 5.05043945 -1.38891602 4.15478516 C-1 2 -1 2 0 0 Z " fill="#572CF3" transform="translate(1003,423)"/>
<path d="M0 0 C2.0238394 3.0357591 2.38395628 4.37967212 2.8515625 7.88671875 C2.98046875 8.82451172 3.109375 9.76230469 3.2421875 10.72851562 C3.36851562 11.70498047 3.49484375 12.68144531 3.625 13.6875 C3.7590625 14.67556641 3.893125 15.66363281 4.03125 16.68164062 C4.3611102 19.12024997 4.68373935 21.55959596 5 24 C2.36 24 -0.28 24 -3 24 C-2.45423097 15.89963866 -1.45852964 7.98651182 0 0 Z " fill="#582DF3" transform="translate(864,422)"/>
<path d="M0 0 C0.33 0 0.66 0 1 0 C1 2.31 1 4.62 1 7 C-1.31 7 -3.62 7 -6 7 C-5.02433888 5.83040013 -4.044375 4.66438823 -3.0625 3.5 C-2.51722656 2.8503125 -1.97195313 2.200625 -1.41015625 1.53125 C-0.71212891 0.77328125 -0.71212891 0.77328125 0 0 Z " fill="#362B4B" transform="translate(1919,1073)"/>
<path d="M0 0 C0.99 1.485 0.99 1.485 2 3 C3.32381517 4.67423683 4.65576661 6.34211215 6 8 C4.02 8 2.04 8 0 8 C0 5.36 0 2.72 0 0 Z " fill="#372E46" transform="translate(0,1072)"/>
<path d="M0 0 C2.64 0 5.28 0 8 0 C8 1.98 8 3.96 8 6 C7.236875 5.38125 6.47375 4.7625 5.6875 4.125 C3.00374191 1.94402948 3.00374191 1.94402948 0 0 Z " fill="#362D46" transform="translate(1912,0)"/>
<path d="M0 0 C1.98 0 3.96 0 6 0 C4.35830472 2.02054804 2.69088222 4.02043058 1 6 C0.67 6 0.34 6 0 6 C0 4.02 0 2.04 0 0 Z " fill="#352E3E" transform="translate(0,0)"/>
</svg>
