<?xml version="1.0" encoding="UTF-8"?>
<svg version="1.1" xmlns="http://www.w3.org/2000/svg" width="1920" height="1080">
<path d="M0 0 C633.6 0 1267.2 0 1920 0 C1920 356.4 1920 712.8 1920 1080 C1286.4 1080 652.8 1080 0 1080 C0 723.6 0 367.2 0 0 Z " fill="#FEFEFE" transform="translate(0,0)"/>
<path d="M0 0 C2.02149899 1.64052418 4.02204658 3.3072277 6 5 C6.51498047 5.43812012 7.02996094 5.87624023 7.56054688 6.32763672 C27.78022819 23.67932244 44.67069821 49.26761223 49 76 C49.18433594 77.08796875 49.36867188 78.1759375 49.55859375 79.296875 C51.91134931 95.19825743 52.57493633 112.25905 49 128 C48.84934082 128.70012207 48.69868164 129.40024414 48.54345703 130.12158203 C45.93410317 142.03036224 41.96634087 152.38700502 36 163 C35.50628906 163.91007813 35.01257812 164.82015625 34.50390625 165.7578125 C23.77317846 184.66578044 7.32911604 199.86303166 -8 215 C-10.58297413 217.57497731 -13.15638566 220.15840789 -15.71875 222.75390625 C-16.6365625 223.68074219 -17.554375 224.60757813 -18.5 225.5625 C-19.4178125 226.49191406 -20.335625 227.42132812 -21.28125 228.37890625 C-24 231 -24 231 -26.640625 233.10546875 C-28.82738448 234.86139317 -30.48101828 236.58791123 -32.25 238.75 C-35.48100602 242.54292011 -39.02488883 245.7284391 -42.79296875 248.9765625 C-45.60344559 251.55324746 -48.00330802 254.37200155 -50.39453125 257.3359375 C-52.12869217 259.13338896 -53.71879787 260.02022121 -56 261 C-56 261.66 -56 262.32 -56 263 C-57.39349463 264.15558092 -58.79144111 265.30619983 -60.2109375 266.4296875 C-62.91189059 268.80039305 -65.11597414 271.55103044 -67.38671875 274.328125 C-69 276 -69 276 -72 277 C-72 277.66 -72 278.32 -72 279 C-73.28515625 280.2265625 -73.28515625 280.2265625 -75.0625 281.625 C-77.805285 283.88862376 -80.14614999 286.21850171 -82.4375 288.9375 C-84.79698357 291.71926251 -87.21516289 294.14442487 -90 296.5 C-92.76269841 298.83766789 -95.16233211 301.23730159 -97.5 304 C-101.01569498 308.11478202 -104.81366209 311.57800184 -109 315 C-110.38638672 316.16015625 -110.38638672 316.16015625 -111.80078125 317.34375 C-125.82104758 328.79173622 -142.66689594 336.89636381 -160 342 C-160.63421875 342.19464844 -161.2684375 342.38929688 -161.921875 342.58984375 C-170.06508442 344.75189741 -178.62658104 344.72809445 -187 345 C-187.86915039 345.03399902 -188.73830078 345.06799805 -189.63378906 345.10302734 C-207.88693922 345.75658434 -225.37606437 344.05932442 -242 336 C-243.10601563 335.53464844 -244.21203125 335.06929687 -245.3515625 334.58984375 C-264.10418088 326.41819955 -282.97529054 313.15473079 -291.8984375 294.2109375 C-294.89741429 285.46923921 -293.62352656 275.4022042 -290 267 C-285.69443671 259.45010381 -280.70852832 254.03257531 -273 250 C-272.39929688 249.66226562 -271.79859375 249.32453125 -271.1796875 248.9765625 C-262.47752841 244.8703489 -250.91006268 246.09059178 -242 249 C-242 249.66 -242 250.32 -242 251 C-241.12601563 251.23203125 -240.25203125 251.4640625 -239.3515625 251.703125 C-235.55004088 253.17411006 -233.38212866 255.01624667 -230.375 257.75 C-222.6303599 264.51374996 -214.15519223 269.04707842 -204 271 C-204 271.66 -204 272.32 -204 273 C-196.41 273 -188.82 273 -181 273 C-181 272.34 -181 271.68 -181 271 C-180.24976563 270.78085937 -179.49953125 270.56171875 -178.7265625 270.3359375 C-154.74042696 262.90446478 -138.23589348 241.42412326 -120.9140625 224.15234375 C-119.70911913 222.95145854 -118.5041463 221.7506029 -117.29914474 220.54977608 C-111.64385241 214.91344098 -105.99091105 209.27476114 -100.34089434 203.63313764 C-93.85704948 197.15909055 -87.36497552 190.69344218 -80.86592066 184.23466486 C-75.81138375 179.21036677 -70.7646227 174.1783414 -65.72353017 169.14055449 C-62.72532737 166.14468903 -59.72398905 163.15214238 -56.71431351 160.167799 C-53.88668937 157.36360406 -51.06891822 154.54985844 -48.2580986 151.72882271 C-47.23249114 150.70272373 -46.2035274 149.67996529 -45.17077637 148.66105652 C-31.78116774 135.4407864 -23.81048145 121.91364704 -23.6875 103 C-23.67542493 94.35223382 -24.04487578 86.8609634 -28 79 C-28.42410156 78.13632812 -28.84820313 77.27265625 -29.28515625 76.3828125 C-35.02138927 65.86904835 -43.15873567 58.88599447 -54 54 C-54.87914062 53.58621094 -55.75828125 53.17242187 -56.6640625 52.74609375 C-70.27069512 47.24594789 -87.40835327 48.57049198 -100.74609375 54.1484375 C-113.76231328 60.53653956 -123.9502213 72.81177516 -134.06016922 82.98500443 C-136.15112699 85.08893449 -138.24537616 87.18954093 -140.34042358 89.28939819 C-144.7714754 93.73175392 -149.19851282 98.17809655 -153.625 102.625 C-158.79345856 107.81709184 -163.96356657 113.0075199 -169.13785934 118.19379807 C-171.20175761 120.26417969 -173.2626273 122.33754404 -175.32339478 124.41104126 C-176.57824289 125.66951874 -177.83322985 126.92785782 -179.08837891 128.18603516 C-179.66078308 128.76360565 -180.23318726 129.34117615 -180.82293701 129.93624878 C-185.79195614 134.90593652 -185.79195614 134.90593652 -190.51171875 135.2734375 C-195.67877877 135.20586377 -200.04311293 133.47547812 -204.8125 131.625 C-214.54521914 127.88690647 -223.7165865 126.10083876 -234.1171875 125.32421875 C-234.82878525 125.27084351 -235.540383 125.21746826 -236.27354431 125.16247559 C-239.22433039 124.94515514 -242.17469161 124.73052935 -245.12792969 124.54907227 C-247.31388891 124.41155608 -249.49612759 124.24523634 -251.6796875 124.07421875 C-252.96601074 123.98744873 -254.25233398 123.90067871 -255.57763672 123.8112793 C-259.92544405 122.7806213 -261.48076975 121.69452975 -264 118 C-264.85344554 114.83208773 -264.78278601 112.18311174 -264 109 C-261.49114031 105.18871896 -258.3105984 102.16270297 -255.0390625 99.00146484 C-254.07475826 98.03806318 -253.11243023 97.07268002 -252.15193176 96.10548401 C-249.54532188 93.4920355 -246.91185013 90.90729082 -244.27247238 88.32699537 C-241.50701877 85.61427428 -238.76683042 82.87626249 -236.02368164 80.14102173 C-231.4110119 75.54856369 -226.7824828 70.97264043 -222.14208984 66.40820312 C-215.61825592 59.99113439 -209.12255816 53.54617563 -202.63280487 47.09466624 C-193.91769788 38.43368106 -185.19370308 29.78142855 -176.43860435 21.16085625 C-175.05035045 19.79319787 -173.66414811 18.423458 -172.2780304 17.05363464 C-160.86993907 5.83992865 -148.98145169 -3.99244842 -134.875 -11.625 C-134.24779053 -11.96781006 -133.62058105 -12.31062012 -132.97436523 -12.66381836 C-129.63372371 -14.40935014 -127.86447662 -15 -124 -15 C-124 -15.66 -124 -16.32 -124 -17 C-80.74672761 -29.60487376 -37.10962649 -28.33805471 0 0 Z " fill="#101A56" transform="translate(1182,292)"/>
<path d="M0 0 C0.71365723 0.33773438 1.42731445 0.67546875 2.16259766 1.0234375 C12.87758149 6.17337794 22.47736498 11.9508136 31.48925781 19.71679688 C32.90488306 20.91920901 34.36917301 22.06365507 35.8359375 23.203125 C43.19500694 29.16993806 48.77388099 36.68393974 50.36816406 46.19677734 C51.5055924 57.32596629 50.02910723 67.52551944 43.015625 76.5546875 C36.4851554 83.61778406 28.4137804 88.5347912 18.71484375 89.23828125 C5.6082406 89.49580499 -2.37470568 86.87030303 -12.38671875 78.24609375 C-19.00194778 72.56035878 -25.22221687 69.26683662 -33.59375 66.76171875 C-36 66 -36 66 -37 65 C-56.85748952 63.41533518 -71.17849595 65.63040911 -87 78 C-91.3813772 81.74292092 -95.4134332 85.85381743 -99.47216797 89.9387207 C-100.65402177 91.11349567 -101.83671045 92.28743122 -103.02015686 93.46060181 C-106.19650841 96.61467596 -109.36025947 99.78109808 -112.52102041 102.95078683 C-115.17368328 105.60860027 -117.83258132 108.26013276 -120.49144566 110.91174001 C-126.76765337 117.17101922 -133.03362289 123.44041468 -139.29296875 129.71655273 C-145.72614603 136.166666 -152.17556505 142.60019905 -158.63332832 149.02568942 C-164.20374037 154.56932703 -169.76430122 160.12271097 -175.31710732 165.6839835 C-178.62220389 168.99398367 -181.93067592 172.30040468 -185.24853134 175.59762001 C-188.36754209 178.69814832 -191.47395118 181.81079418 -194.57148552 184.93277359 C-195.70267888 186.06893407 -196.83804503 187.20095949 -197.9780941 188.32823372 C-213.08089344 203.27525456 -218.74372956 217.10370803 -219 238 C-219.03939363 251.64989128 -211.76782607 263.86060935 -202.8125 273.6875 C-195.81266797 280.32554296 -187.49942327 284.57508651 -178 286 C-178 286.66 -178 287.32 -178 288 C-158.86103991 287.55696852 -141.65350583 285.34941166 -127.10693359 271.72949219 C-126.54644003 271.20800976 -125.98594646 270.68652733 -125.40846825 270.1492424 C-119.09809632 264.22822758 -113.03964848 258.06091063 -106.98692703 251.87870026 C-103.48517214 248.30690429 -99.96552356 244.75277488 -96.44921875 241.1953125 C-92.00908113 236.70109696 -87.57447883 232.20177017 -83.15771484 227.68457031 C-79.55283361 223.99865532 -75.93116375 220.33000889 -72.29758835 216.67238617 C-70.92375873 215.28314323 -69.55623625 213.88763293 -68.19530106 212.48575592 C-66.30054153 210.53554795 -64.38510732 208.60815602 -62.46337891 206.68457031 C-61.91052216 206.10497559 -61.35766541 205.52538086 -60.78805542 204.92822266 C-57.91185939 202.09645931 -56.3477782 201.03734065 -52.28198242 200.60079956 C-49.02567535 200.99687701 -46.19628483 201.64566108 -43.0859375 202.6796875 C-41.99410156 203.03160156 -40.90226563 203.38351562 -39.77734375 203.74609375 C-38.65457031 204.11863281 -37.53179688 204.49117187 -36.375 204.875 C-21.72936737 209.7339848 -7.76908746 211.35107754 7.59765625 212.03515625 C8.74105469 212.10347656 9.88445312 212.17179688 11.0625 212.2421875 C12.59583984 212.31735596 12.59583984 212.31735596 14.16015625 212.39404297 C17.66582128 213.14207088 19.42277922 214.55244708 22 217 C23.44724448 220.20461279 22.96198171 222.67688134 22 226 C20.19303894 228.41166687 20.19303894 228.41166687 17.67651367 231.06518555 C17.19815913 231.57211535 16.71980459 232.07904516 16.22695446 232.60133648 C8.03727533 241.2074284 -0.41926467 249.56255549 -8.82421875 257.95703125 C-10.74026507 259.87330127 -12.65571211 261.79017001 -14.57124329 263.70695496 C-18.56596736 267.70348609 -22.5627675 271.69793184 -26.56079102 275.69116211 C-31.16329438 280.28821072 -35.76216456 284.8888704 -40.35919446 289.49139196 C-44.33387938 293.47063216 -48.31053111 297.44789896 -52.28879863 301.42355746 C-54.65300935 303.78622056 -57.01636172 306.14972338 -59.37833214 308.51462746 C-62.00981218 311.1486603 -64.6444992 313.77944416 -67.2800293 316.40942383 C-68.04749985 317.17891861 -68.8149704 317.94841339 -69.60569763 318.7412262 C-76.72558695 325.83350452 -84.07176908 332.30317524 -92.3125 338.0625 C-93.05669189 338.58271729 -93.80088379 339.10293457 -94.56762695 339.63891602 C-104.57064502 346.55007242 -114.43415169 351.20854641 -126 355 C-127.08539062 355.37253906 -128.17078125 355.74507812 -129.2890625 356.12890625 C-157.88953914 365.55801716 -191.87949942 362.99995736 -219 350 C-229.04259654 344.93597194 -238.59551434 339.53746717 -247 332 C-247.95003906 331.19175781 -248.90007813 330.38351562 -249.87890625 329.55078125 C-273.84093662 308.81551955 -289.62573553 278.4681405 -293 247 C-294.69671604 222.4279797 -291.75133246 198.88297979 -280 177 C-279.57074219 176.15050781 -279.14148438 175.30101562 -278.69921875 174.42578125 C-273.08633527 163.59528777 -266.10592949 153.97967631 -257.73730469 145.13842773 C-257.10119137 144.46365859 -256.46507805 143.78888945 -255.80968857 143.09367275 C-245.87439987 132.62959726 -235.62843577 122.46346861 -225.4272089 112.25995183 C-223.62190266 110.45392645 -221.81731367 108.64718744 -220.01296234 106.84020805 C-213.69392308 100.51198044 -207.37237174 94.18627531 -201.04833984 87.86303711 C-195.18888446 82.00418443 -189.33505645 76.13975011 -183.48377824 70.27273184 C-178.42197091 65.19780216 -173.35626791 60.12678307 -168.28757644 55.05872911 C-165.27648617 52.04789195 -162.26691717 49.03557454 -159.26129913 46.01927376 C-156.43876928 43.18698018 -153.61136764 40.35963807 -150.78034401 37.53583527 C-149.75117031 36.50769639 -148.72365396 35.47789495 -147.69805717 34.44618797 C-131.47023093 18.12805447 -113.7822103 4.80651027 -92 -3 C-90.84757812 -3.49693359 -90.84757812 -3.49693359 -89.671875 -4.00390625 C-62.96274242 -13.96125831 -25.62503824 -12.14287527 0 0 Z " fill="#102973" transform="translate(980,452)"/>
</svg>
